<?xml version="1.0" encoding="UTF-8" standalone="no"?>
<!-- Created with Sodipodi ("http://www.sodipodi.com/") -->

<svg
   xmlns:dc="http://purl.org/dc/elements/1.1/"
   xmlns:cc="http://creativecommons.org/ns#"
   xmlns:rdf="http://www.w3.org/1999/02/22-rdf-syntax-ns#"
   xmlns:svg="http://www.w3.org/2000/svg"
   xmlns="http://www.w3.org/2000/svg"
   xmlns:sodipodi="http://sodipodi.sourceforge.net/DTD/sodipodi-0.dtd"
   xmlns:inkscape="http://www.inkscape.org/namespaces/inkscape"
   version="1"
   x="0"
   y="0"
   width="1062.99"
   height="708.661"
   id="svg378"
   inkscape:version="0.48.0 r9654"
   sodipodi:docname="bahrain.svg">
  <metadata
     id="metadata438592">
    <rdf:RDF>
      <cc:Work
         rdf:about="">
        <dc:format>image/svg+xml</dc:format>
        <dc:type
           rdf:resource="http://purl.org/dc/dcmitype/StillImage" />
      </cc:Work>
    </rdf:RDF>
  </metadata>
  <sodipodi:namedview
     pagecolor="#ffffff"
     bordercolor="#666666"
     borderopacity="1"
     objecttolerance="10"
     gridtolerance="10"
     guidetolerance="10"
     inkscape:pageopacity="0"
     inkscape:pageshadow="2"
     inkscape:window-width="640"
     inkscape:window-height="480"
     id="namedview438590" />
  <defs
     id="defs380" />
  <rect
     width="1062.99"
     height="708.661"
     x="0"
     y="0"
     style="font-size:12;fill:#e10011;fill-rule:evenodd;stroke-width:1pt;"
     id="rect171" />
  <path
     d="M 216.658 708.323 L 0 708.661 L 0 -2.43694e-14 L 215.645 0.112762 L 354.782 44.8555 L 216.661 88.4698 L 216.661 88.4698 L 354.782 133.438 L 216.661 177.053 L 216.661 177.053 L 354.782 222.021 L 216.661 265.635 L 216.661 265.635 L 354.782 310.603 L 216.661 354.218 L 216.661 354.218 L 354.782 399.187 L 216.661 442.801 L 216.661 442.801 L 354.782 487.77 L 216.661 531.384 L 216.661 531.384 L 354.782 576.352 L 216.661 619.967 L 216.661 619.967 L 354.782 664.935 L 216.661 708.55 "
     style="font-size:12;fill:#ffffff;fill-rule:evenodd;stroke-width:1pt;"
     id="path193" />
</svg>
