<?xml version="1.0" encoding="UTF-8" standalone="no"?>
<!-- Created with Sodipodi ("http://www.sodipodi.com/") -->

<svg
   xmlns:dc="http://purl.org/dc/elements/1.1/"
   xmlns:cc="http://creativecommons.org/ns#"
   xmlns:rdf="http://www.w3.org/1999/02/22-rdf-syntax-ns#"
   xmlns:svg="http://www.w3.org/2000/svg"
   xmlns="http://www.w3.org/2000/svg"
   xmlns:sodipodi="http://sodipodi.sourceforge.net/DTD/sodipodi-0.dtd"
   xmlns:inkscape="http://www.inkscape.org/namespaces/inkscape"
   id="svg548"
   sodipodi:version="0.33pre"
   width="210pt"
   height="140pt"
   sodipodi:docname="burundi32.svg"
   version="1.1"
   inkscape:version="0.48.0 r9654">
  <metadata
     id="metadata426727">
    <rdf:RDF>
      <cc:Work
         rdf:about="">
        <dc:format>image/svg+xml</dc:format>
        <dc:type
           rdf:resource="http://purl.org/dc/dcmitype/StillImage" />
      </cc:Work>
    </rdf:RDF>
  </metadata>
  <defs
     id="defs550" />
  <sodipodi:namedview
     id="base" />
  <path
     style="font-size:12;fill-rule:evenodd;stroke-width:1pt;fill:#00cf00;fill-opacity:1;"
     d="M 1.90735e-05 0 L 131.25 87.5 L 1.90735e-05 175 L 1.90735e-05 0 z "
     id="path551" />
  <path
     style="font-size:12;fill-rule:evenodd;stroke-width:1pt;fill:#00cf00;fill-opacity:1;"
     d="M 262.5 0 L 131.25 87.5 L 262.5 175 L 262.5 0 z "
     id="path552" />
  <path
     style="font-size:12;fill:#ff0000;fill-rule:evenodd;stroke-width:1pt;fill-opacity:1;"
     d="M 1.90735e-05 0 L 131.25 87.5 L 262.5 0 L 1.90735e-05 0 z "
     id="path556" />
  <path
     style="font-size:12;fill:#ff0000;fill-rule:evenodd;stroke-width:1pt;fill-opacity:1;"
     d="M 1.90735e-05 175 L 131.25 87.5 L 262.5 175 L 1.90735e-05 175 z "
     id="path557" />
  <path
     style="font-size:12;fill:#ffffff;fill-rule:evenodd;stroke-width:1pt;fill-opacity:1;"
     d="M 262.5 0 L 238.043 0 L 1.90735e-05 158.695 L 1.90735e-05 175 L 24.457 175 L 262.5 16.3047 L 262.5 0 z "
     id="path558" />
  <path
     style="font-size:12;fill:#ffffff;fill-rule:evenodd;stroke-width:1pt;fill-opacity:1;"
     d="M 1.90735e-05 0 L 1.90735e-05 16.3047 L 238.043 175 L 262.5 175 L 262.5 158.695 L 24.457 0 L 1.90735e-05 0 z "
     id="path566" />
  <g
     id="g579"
     transform="translate(-15.31250,0.000000)">
    <path
       sodipodi:type="arc"
       style="fill-rule:evenodd;stroke:none;fill:#ffffff;fill-opacity:1;stroke-opacity:1;stroke-width:1pt;stroke-linejoin:miter;stroke-linecap:butt;"
       id="path571"
       d="M 196.839005 88.135818 A 50.604351 50.604351 0 1 0 95.630295,88.135818 A 50.6044 50.6044 0 1 0 196.839 88.1358 L 146.234650 88.135818 z"
       sodipodi:cx="146.234650"
       sodipodi:cy="88.135818"
       sodipodi:rx="50.604351"
       sodipodi:ry="50.604351"
       transform="translate(0.327845,-0.635834)" />
    <polygon
       sodipodi:type="star"
       style="font-size:12;fill:#ff0000;fill-rule:evenodd;stroke-width:1pt;fill-opacity:1;stroke:#00de00;stroke-opacity:1;"
       id="polygon576"
       sodipodi:sides="6"
       sodipodi:cx="124.319382"
       sodipodi:cy="100.089600"
       sodipodi:r1="11.5157557"
       sodipodi:r2="6.79429579"
       sodipodi:arg1="0.52558392"
       sodipodi:arg2="1.04918265"
       points="134.281,105.867 127.705,105.98 124.297,111.605 120.911,105.967 114.335,105.828 117.525,100.076 114.358,94.3119 120.934,94.1988 124.342,88.5739 127.728,94.2123 134.304,94.3515 131.114,100.103 134.281,105.867 "
       transform="translate(22.24312,-37.45520)" />
    <polygon
       sodipodi:type="star"
       style="font-size:12;fill:#ff0000;fill-rule:evenodd;stroke-width:1pt;fill-opacity:1;stroke:#00de00;stroke-opacity:1;"
       id="polygon577"
       sodipodi:sides="6"
       sodipodi:cx="124.319382"
       sodipodi:cy="100.089600"
       sodipodi:r1="11.5157557"
       sodipodi:r2="6.79429579"
       sodipodi:arg1="0.52558392"
       sodipodi:arg2="1.04918265"
       points="134.281,105.867 127.705,105.98 124.297,111.605 120.911,105.967 114.335,105.828 117.525,100.076 114.358,94.3119 120.934,94.1988 124.342,88.5739 127.728,94.2123 134.304,94.3515 131.114,100.103 134.281,105.867 "
       transform="translate(0.199236,0.697308)" />
    <polygon
       sodipodi:type="star"
       style="font-size:12;fill:#ff0000;fill-rule:evenodd;stroke-width:1pt;fill-opacity:1;stroke:#00de00;stroke-opacity:1;"
       id="polygon578"
       sodipodi:sides="6"
       sodipodi:cx="124.319382"
       sodipodi:cy="100.089600"
       sodipodi:r1="11.5157557"
       sodipodi:r2="6.79429579"
       sodipodi:arg1="0.52558392"
       sodipodi:arg2="1.04918265"
       points="134.281,105.867 127.705,105.98 124.297,111.605 120.911,105.967 114.335,105.828 117.525,100.076 114.358,94.3119 120.934,94.1988 124.342,88.5739 127.728,94.2123 134.304,94.3515 131.114,100.103 134.281,105.867 "
       transform="translate(44.82670,0.697308)" />
  </g>
</svg>
