<?xml version="1.0" encoding="UTF-8" standalone="no"?>
<!-- Created with Sodipodi ("http://www.sodipodi.com/") -->

<svg
   xmlns:dc="http://purl.org/dc/elements/1.1/"
   xmlns:cc="http://creativecommons.org/ns#"
   xmlns:rdf="http://www.w3.org/1999/02/22-rdf-syntax-ns#"
   xmlns:svg="http://www.w3.org/2000/svg"
   xmlns="http://www.w3.org/2000/svg"
   xmlns:sodipodi="http://sodipodi.sourceforge.net/DTD/sodipodi-0.dtd"
   xmlns:inkscape="http://www.inkscape.org/namespaces/inkscape"
   id="svg1"
   sodipodi:version="0.32"
   width="1000"
   height="500"
   sodipodi:docname="canada_newfoundland.svg"
   version="1.1"
   inkscape:version="0.48.0 r9654">
  <metadata
     id="metadata431253">
    <rdf:RDF>
      <cc:Work
         rdf:about="">
        <dc:format>image/svg+xml</dc:format>
        <dc:type
           rdf:resource="http://purl.org/dc/dcmitype/StillImage" />
      </cc:Work>
    </rdf:RDF>
  </metadata>
  <defs
     id="defs3" />
  <sodipodi:namedview
     id="base"
     showgrid="false"
     showborder="true">
    <inkscape:grid
       id="GridFromPre046Settings"
       type="xygrid"
       originx="0px"
       originy="0px"
       spacingx="50pt"
       spacingy="50pt"
       color="#0000ff"
       empcolor="#0000ff"
       opacity="0.2"
       empopacity="0.4"
       empspacing="5" />
  </sodipodi:namedview>
  <rect
     style="font-size:12;fill:#ffffff;fill-rule:evenodd;stroke-width:1pt;fill-opacity:1;"
     id="rect565"
     width="1000.000061"
     height="499.999988"
     x="0.000000"
     y="-0.000005" />
  <g
     id="NFLD_flag">
    <rect
       style="font-size:12;fill:none;fill-rule:evenodd;stroke-width:1.25;stroke:#000000;stroke-opacity:1;stroke-dasharray:none;"
       id="rect564"
       width="1000"
       height="500"
       x="0"
       y="0" />
    <g
       id="past">
      <path
         style="fill:#21219c;fill-rule:evenodd;stroke:#21219c;stroke-width:1;stroke-opacity:1;fill-opacity:1;"
         d="M 30 50 L 30 220 L 340 220 L 30 50 z "
         id="path568" />
      <path
         style="fill:#21219c;fill-rule:evenodd;stroke:#21219c;stroke-width:1pt;stroke-opacity:1;fill-opacity:1;"
         d="M 400 190 L 400 30 L 110 30 L 400 190 z "
         id="path569" />
      <path
         style="fill:#21219c;fill-rule:evenodd;stroke:#21219c;stroke-width:1;stroke-opacity:1;fill-opacity:1;"
         d="M 30 280 L 30 450 L 340 280 L 30 280 z "
         id="path570" />
      <path
         style="fill:#21219c;fill-rule:evenodd;stroke:#21219c;stroke-width:1;stroke-opacity:1;fill-opacity:1;"
         d="M 400 310 L 400 470 L 110 470 L 400 310 z "
         id="path571" />
    </g>
    <g
       id="future">
      <path
         style="fill:#cc0000;fill-rule:evenodd;stroke:#cc0000;stroke-width:1;"
         d="M 460 30 L 460 200 L 970 30 L 460 30 z "
         id="path572" />
      <path
         style="fill:#ffffff;fill-rule:evenodd;stroke:#ffffff;stroke-width:1;"
         d="M 480 50 L 480 175 L 850 50 L 480 50 z "
         id="path576" />
      <path
         style="fill:#cc0000;fill-rule:evenodd;stroke:#d62929;stroke-width:1;stroke-opacity:1;"
         d="M 460 300 L 460 470 L 970 470 L 460 300 z "
         id="path573" />
      <path
         style="fill:#ffffff;fill-rule:evenodd;stroke:#ffffff;stroke-width:1;stroke-opacity:1;"
         d="M 480 330 L 480 450 L 850 450 L 480 330 z "
         id="path577" />
      <path
         style="fill:#cc0000;fill-rule:evenodd;stroke:#cc0000;stroke-width:1;fill-opacity:1;"
         d="M 460 220 L 950 220 L 975 250 L 950 280 L 460 280 L 490 250 L 460 220 z "
         id="path574" />
      <path
         style="fill:#ffff00;fill-rule:evenodd;stroke:#ffff00;stroke-width:1;fill-opacity:1;"
         d="M 490 230 L 940 230 L 960 250 L 940 270 L 490 270 L 510 250 L 490 230 z "
         id="path575" />
    </g>
  </g>
</svg>
