<?xml version="1.0" encoding="UTF-8" standalone="no"?>
<!-- Created with Sodipodi ("http://www.sodipodi.com/") -->

<svg
   xmlns:dc="http://purl.org/dc/elements/1.1/"
   xmlns:cc="http://creativecommons.org/ns#"
   xmlns:rdf="http://www.w3.org/1999/02/22-rdf-syntax-ns#"
   xmlns:svg="http://www.w3.org/2000/svg"
   xmlns="http://www.w3.org/2000/svg"
   xmlns:sodipodi="http://sodipodi.sourceforge.net/DTD/sodipodi-0.dtd"
   xmlns:inkscape="http://www.inkscape.org/namespaces/inkscape"
   id="england"
   sodipodi:version="0.32"
   width="186pt"
   height="140pt"
   sodipodi:docname="georgia_stgeorge.svg"
   version="1.1"
   inkscape:version="0.48.0 r9654">
  <metadata
     id="metadata434250">
    <rdf:RDF>
      <cc:Work
         rdf:about="">
        <dc:format>image/svg+xml</dc:format>
        <dc:type
           rdf:resource="http://purl.org/dc/dcmitype/StillImage" />
      </cc:Work>
    </rdf:RDF>
  </metadata>
  <defs
     id="defs550" />
  <sodipodi:namedview
     id="base"
     showgrid="false"
     snaptogrid="false">
    <inkscape:grid
       id="GridFromPre046Settings"
       type="xygrid"
       originx="0px"
       originy="6mm"
       spacingx="6mm"
       spacingy="6mm"
       color="#0000ff"
       empcolor="#0000ff"
       opacity="0.2"
       empopacity="0.4"
       empspacing="5" />
  </sodipodi:namedview>
  <g
     id="g887"
     transform="matrix(0.683834,0.000000,0.000000,0.690756,0.000000,-1.142578)">
    <rect
       style="font-size:12;fill:#cc0000;fill-rule:evenodd;stroke-width:0pt;"
       id="horizontal"
       width="340.157471"
       height="42.519688"
       x="0.000000"
       y="106.181107" />
    <rect
       style="font-size:12;fill:#cc0000;fill-rule:evenodd;stroke-width:0pt;"
       id="vertical"
       width="42.519691"
       height="253.031501"
       x="148.818893"
       y="1.968497" />
    <g
       id="g866"
       style="fill:#cc0000;fill-opacity:1;"
       transform="matrix(0.474079,0.000000,0.000000,0.474079,-4.493914,-1.035786)">
      <path
         style="font-size:12;fill:#cc0000;fill-opacity:1;"
         d="M 135.39 106 C 137.044 108.667 137.412 111.481 135.39 114 L 140 114 C 138.345 110.745 138.529 108.519 140 106 L 135.39 106 z "
         id="path1167"
         transform="matrix(13.46334,0.000000,0.000000,16.81670,-1687.400,-1735.790)"
         sodipodi:nodetypes="ccccc" />
      <path
         style="font-size:12;fill:#cc0000;fill-opacity:1;"
         d="M 135.39 106 C 137.044 108.667 137.412 111.481 135.39 114 L 140 114 C 138.345 110.745 138.529 108.519 140 106 L 135.39 106 z "
         id="path865"
         transform="matrix(8.243645e-16,-13.46334,16.81670,1.029692e-15,-1683.402,1967.882)"
         sodipodi:nodetypes="ccccc" />
    </g>
    <g
       id="g878"
       style="fill:#cc0000;fill-opacity:1;"
       transform="matrix(0.474079,0.000000,0.000000,0.474079,-4.493914,147.7831)">
      <path
         style="font-size:12;fill:#cc0000;fill-opacity:1;"
         d="M 135.39 106 C 137.044 108.667 137.412 111.481 135.39 114 L 140 114 C 138.345 110.745 138.529 108.519 140 106 L 135.39 106 z "
         id="path879"
         transform="matrix(13.46334,0.000000,0.000000,16.81670,-1687.400,-1735.790)"
         sodipodi:nodetypes="ccccc" />
      <path
         style="font-size:12;fill:#cc0000;fill-opacity:1;"
         d="M 135.39 106 C 137.044 108.667 137.412 111.481 135.39 114 L 140 114 C 138.345 110.745 138.529 108.519 140 106 L 135.39 106 z "
         id="path880"
         transform="matrix(8.243645e-16,-13.46334,16.81670,1.029692e-15,-1683.402,1967.882)"
         sodipodi:nodetypes="ccccc" />
    </g>
    <g
       id="g881"
       style="fill:#cc0000;fill-opacity:1;"
       transform="matrix(0.474079,0.000000,0.000000,0.474079,186.8447,147.7831)">
      <path
         style="font-size:12;fill:#cc0000;fill-opacity:1;"
         d="M 135.39 106 C 137.044 108.667 137.412 111.481 135.39 114 L 140 114 C 138.345 110.745 138.529 108.519 140 106 L 135.39 106 z "
         id="path882"
         transform="matrix(13.46334,0.000000,0.000000,16.81670,-1687.400,-1735.790)"
         sodipodi:nodetypes="ccccc" />
      <path
         style="font-size:12;fill:#cc0000;fill-opacity:1;"
         d="M 135.39 106 C 137.044 108.667 137.412 111.481 135.39 114 L 140 114 C 138.345 110.745 138.529 108.519 140 106 L 135.39 106 z "
         id="path883"
         transform="matrix(8.243645e-16,-13.46334,16.81670,1.029692e-15,-1683.402,1967.882)"
         sodipodi:nodetypes="ccccc" />
    </g>
    <g
       id="g884"
       style="fill:#cc0000;fill-opacity:1;"
       transform="matrix(0.474079,0.000000,0.000000,0.474079,186.8447,-1.035786)">
      <path
         style="font-size:12;fill:#cc0000;fill-opacity:1;"
         d="M 135.39 106 C 137.044 108.667 137.412 111.481 135.39 114 L 140 114 C 138.345 110.745 138.529 108.519 140 106 L 135.39 106 z "
         id="path885"
         transform="matrix(13.46334,0.000000,0.000000,16.81670,-1687.400,-1735.790)"
         sodipodi:nodetypes="ccccc" />
      <path
         style="font-size:12;fill:#cc0000;fill-opacity:1;"
         d="M 135.39 106 C 137.044 108.667 137.412 111.481 135.39 114 L 140 114 C 138.345 110.745 138.529 108.519 140 106 L 135.39 106 z "
         id="path886"
         transform="matrix(8.243645e-16,-13.46334,16.81670,1.029692e-15,-1683.402,1967.882)"
         sodipodi:nodetypes="ccccc" />
    </g>
  </g>
</svg>
