<?xml version="1.0" encoding="UTF-8" standalone="no"?>
<!-- Created with Sodipodi ("http://www.sodipodi.com/") -->

<svg
   xmlns:dc="http://purl.org/dc/elements/1.1/"
   xmlns:cc="http://creativecommons.org/ns#"
   xmlns:rdf="http://www.w3.org/1999/02/22-rdf-syntax-ns#"
   xmlns:svg="http://www.w3.org/2000/svg"
   xmlns="http://www.w3.org/2000/svg"
   xmlns:sodipodi="http://sodipodi.sourceforge.net/DTD/sodipodi-0.dtd"
   xmlns:inkscape="http://www.inkscape.org/namespaces/inkscape"
   version="1"
   x="0"
   y="0"
   width="266mm"
   height="200mm"
   id="svg378"
   sodipodi:version="0.32-hydra1"
   sodipodi:docname="honduras34.svg"
   inkscape:version="0.48.0 r9654">
  <metadata
     id="metadata429135">
    <rdf:RDF>
      <cc:Work
         rdf:about="">
        <dc:format>image/svg+xml</dc:format>
        <dc:type
           rdf:resource="http://purl.org/dc/dcmitype/StillImage" />
      </cc:Work>
    </rdf:RDF>
  </metadata>
  <sodipodi:namedview
     id="base" />
  <defs
     id="defs380" />
  <rect
     width="942.519653"
     height="708.661377"
     x="-942.519531"
     y="-708.661224"
     style="font-size:12;fill:#ffffff;fill-rule:evenodd;stroke-width:1.0247pt;"
     id="rect149"
     transform="scale(-1.000000,-1.000000)" />
  <rect
     width="942.519653"
     height="236.220490"
     x="-942.519531"
     y="-708.661224"
     style="font-size:12;fill:#3436aa;fill-rule:evenodd;stroke-width:1pt;fill-opacity:1;"
     id="rect148"
     transform="scale(-1.000000,-1.000000)" />
  <rect
     width="942.519653"
     height="236.220490"
     x="-942.519531"
     y="-236.411392"
     style="font-size:12;fill:#3436aa;fill-rule:evenodd;stroke-width:1pt;fill-opacity:1;"
     id="rect585"
     transform="scale(-1.000000,-1.000000)" />
  <g
     id="g634"
     transform="translate(-15.28442,-3.051758e-5)">
    <polygon
       points="591.041,433.161 533.774,391.476 476.501,433.151 498.449,365.806 441.115,324.214 511.946,324.278 533.785,256.897 555.613,324.281 626.445,324.23 569.104,365.812 591.041,433.161 "
       style="font-size:12;fill:#3436aa;fill-rule:evenodd;stroke-width:1pt;"
       id="polygon136"
       transform="matrix(0.372721,-1.813896e-3,-4.058270e-3,0.353365,438.9917,163.0496)" />
    <polygon
       points="591.041,433.161 533.774,391.476 476.501,433.151 498.449,365.806 441.115,324.214 511.946,324.278 533.785,256.897 555.613,324.281 626.445,324.23 569.104,365.812 591.041,433.161 "
       style="font-size:12;fill:#3436aa;fill-rule:evenodd;stroke-width:1pt;"
       id="polygon667"
       transform="matrix(0.372721,-1.813896e-3,-4.058270e-3,0.353365,438.9917,288.5612)" />
    <polygon
       points="591.041,433.161 533.774,391.476 476.501,433.151 498.449,365.806 441.115,324.214 511.946,324.278 533.785,256.897 555.613,324.281 626.445,324.23 569.104,365.812 591.041,433.161 "
       style="font-size:12;fill:#3436aa;fill-rule:evenodd;stroke-width:1pt;"
       id="polygon668"
       transform="matrix(0.372721,-1.813896e-3,-4.058270e-3,0.353365,138.8264,163.0496)" />
    <polygon
       points="591.041,433.161 533.774,391.476 476.501,433.151 498.449,365.806 441.115,324.214 511.946,324.278 533.785,256.897 555.613,324.281 626.445,324.23 569.104,365.812 591.041,433.161 "
       style="font-size:12;fill:#3436aa;fill-rule:evenodd;stroke-width:1pt;"
       id="polygon669"
       transform="matrix(0.372721,-1.813896e-3,-4.058270e-3,0.353365,438.9917,288.5612)" />
    <polygon
       points="591.041,433.161 533.774,391.476 476.501,433.151 498.449,365.806 441.115,324.214 511.946,324.278 533.785,256.897 555.613,324.281 626.445,324.23 569.104,365.812 591.041,433.161 "
       style="font-size:12;fill:#3436aa;fill-rule:evenodd;stroke-width:1pt;"
       id="polygon670"
       transform="matrix(0.372721,-1.813896e-3,-4.058270e-3,0.353365,142.3619,288.5612)" />
    <polygon
       points="591.041,433.161 533.774,391.476 476.501,433.151 498.449,365.806 441.115,324.214 511.946,324.278 533.785,256.897 555.613,324.281 626.445,324.23 569.104,365.812 591.041,433.161 "
       style="font-size:12;fill:#3436aa;fill-rule:evenodd;stroke-width:1pt;"
       id="polygon671"
       transform="matrix(0.372721,-1.813896e-3,-4.058270e-3,0.353365,286.2893,228.8317)" />
  </g>
</svg>
