<?xml version="1.0" encoding="UTF-8" standalone="no"?>
<!-- Created with Sodipodi ("http://www.sodipodi.com/") -->

<svg
   xmlns:dc="http://purl.org/dc/elements/1.1/"
   xmlns:cc="http://creativecommons.org/ns#"
   xmlns:rdf="http://www.w3.org/1999/02/22-rdf-syntax-ns#"
   xmlns:svg="http://www.w3.org/2000/svg"
   xmlns="http://www.w3.org/2000/svg"
   xmlns:sodipodi="http://sodipodi.sourceforge.net/DTD/sodipodi-0.dtd"
   xmlns:inkscape="http://www.inkscape.org/namespaces/inkscape"
   version="1"
   x="0"
   y="0"
   width="299.999mm"
   height="210mm"
   id="svg378"
   sodipodi:version="0.32-hydra1"
   sodipodi:docname="honduras_3x2.svg"
   inkscape:version="0.48.0 r9654">
  <metadata
     id="metadata427583">
    <rdf:RDF>
      <cc:Work
         rdf:about="">
        <dc:format>image/svg+xml</dc:format>
        <dc:type
           rdf:resource="http://purl.org/dc/dcmitype/StillImage" />
      </cc:Work>
    </rdf:RDF>
  </metadata>
  <sodipodi:namedview
     id="base" />
  <defs
     id="defs380" />
  <rect
     width="1062.989990"
     height="744.094421"
     x="-1062.989227"
     y="-744.094467"
     style="font-size:12;fill:#ffffff;fill-rule:evenodd;stroke:none;stroke-width:1.0247pt;fill-opacity:1;"
     id="rect149"
     transform="scale(-1.000000,-1.000000)" />
  <rect
     width="1062.989990"
     height="248.031494"
     x="-1062.989258"
     y="-744.094498"
     style="font-size:12;fill:#4e73ad;fill-rule:evenodd;stroke-width:1pt;stroke:none;fill-opacity:1;"
     id="rect148"
     transform="scale(-1.000000,-1.000000)" />
  <rect
     width="1062.989990"
     height="248.031494"
     x="-1062.989258"
     y="-248.232300"
     style="font-size:12;fill:#5072ad;fill-rule:evenodd;stroke-width:1pt;stroke:none;fill-opacity:1;"
     id="rect585"
     transform="scale(-1.000000,-1.000000)" />
  <polygon
     points="591.041,433.161 533.774,391.476 476.501,433.151 498.449,365.806 441.115,324.214 511.946,324.278 533.785,256.897 555.613,324.281 626.445,324.23 569.104,365.812 591.041,433.161 "
     style="font-size:12;fill:#5072ad;fill-rule:evenodd;stroke-width:1pt;fill-opacity:1;stroke:none;stroke-opacity:1;"
     id="polygon136"
     transform="matrix(0.372721,-1.813896e-3,-4.058270e-3,0.353365,422.5728,185.2621)" />
  <polygon
     points="591.041,433.161 533.774,391.476 476.501,433.151 498.449,365.806 441.115,324.214 511.946,324.278 533.785,256.897 555.613,324.281 626.445,324.23 569.104,365.812 591.041,433.161 "
     style="font-size:12;fill:#5072ad;fill-rule:evenodd;stroke-width:1pt;fill-opacity:1;stroke:none;stroke-opacity:1;"
     id="polygon667"
     transform="matrix(0.372721,-1.813896e-3,-4.058270e-3,0.353365,422.5728,310.7736)" />
  <polygon
     points="591.041,433.161 533.774,391.476 476.501,433.151 498.449,365.806 441.115,324.214 511.946,324.278 533.785,256.897 555.613,324.281 626.445,324.23 569.104,365.812 591.041,433.161 "
     style="font-size:12;fill:#5072ad;fill-rule:evenodd;stroke-width:1pt;fill-opacity:1;stroke:none;stroke-opacity:1;"
     id="polygon668"
     transform="matrix(0.372721,-1.813896e-3,-4.058270e-3,0.353365,249.3316,185.2621)" />
  <polygon
     points="591.041,433.161 533.774,391.476 476.501,433.151 498.449,365.806 441.115,324.214 511.946,324.278 533.785,256.897 555.613,324.281 626.445,324.23 569.104,365.812 591.041,433.161 "
     style="font-size:12;fill:#5072ad;fill-rule:evenodd;stroke-width:1pt;fill-opacity:1;stroke:none;stroke-opacity:1;"
     id="polygon669"
     transform="matrix(0.372721,-1.813896e-3,-4.058270e-3,0.353365,422.5728,310.7736)" />
  <polygon
     points="591.041,433.161 533.774,391.476 476.501,433.151 498.449,365.806 441.115,324.214 511.946,324.278 533.785,256.897 555.613,324.281 626.445,324.23 569.104,365.812 591.041,433.161 "
     style="font-size:12;fill:#5072ad;fill-rule:evenodd;stroke-width:1pt;fill-opacity:1;stroke:none;stroke-opacity:1;"
     id="polygon670"
     transform="matrix(0.372721,-1.813896e-3,-4.058270e-3,0.353365,252.8671,310.7736)" />
  <polygon
     points="591.041,433.161 533.774,391.476 476.501,433.151 498.449,365.806 441.115,324.214 511.946,324.278 533.785,256.897 555.613,324.281 626.445,324.23 569.104,365.812 591.041,433.161 "
     style="font-size:12;fill:#5072ad;fill-rule:evenodd;stroke-width:1pt;fill-opacity:1;stroke:none;stroke-opacity:1;"
     id="polygon671"
     transform="matrix(0.372721,-1.813896e-3,-4.058270e-3,0.353365,333.8590,251.0441)" />
</svg>
