<?xml version="1.0" encoding="UTF-8" standalone="no"?>
<!-- Created with Sodipodi ("http://www.sodipodi.com/") -->

<svg
   xmlns:dc="http://purl.org/dc/elements/1.1/"
   xmlns:cc="http://creativecommons.org/ns#"
   xmlns:rdf="http://www.w3.org/1999/02/22-rdf-syntax-ns#"
   xmlns:svg="http://www.w3.org/2000/svg"
   xmlns="http://www.w3.org/2000/svg"
   xmlns:sodipodi="http://sodipodi.sourceforge.net/DTD/sodipodi-0.dtd"
   xmlns:inkscape="http://www.inkscape.org/namespaces/inkscape"
   version="1"
   x="0"
   y="0"
   width="271mm"
   height="140mm"
   id="svg378"
   sodipodi:version="0.32"
   sodipodi:docname="honduras.svg"
   inkscape:version="0.48.0 r9654">
  <metadata
     id="metadata448186">
    <rdf:RDF>
      <cc:Work
         rdf:about="">
        <dc:format>image/svg+xml</dc:format>
        <dc:type
           rdf:resource="http://purl.org/dc/dcmitype/StillImage" />
      </cc:Work>
    </rdf:RDF>
  </metadata>
  <sodipodi:namedview
     id="base"
     showgrid="true">
    <inkscape:grid
       id="GridFromPre046Settings"
       type="xygrid"
       originx="0px"
       originy="-8mm"
       spacingx="1mm"
       spacingy="1mm"
       color="#0000ff"
       empcolor="#0000ff"
       opacity="0.2"
       empopacity="0.4"
       empspacing="5" />
  </sodipodi:namedview>
  <defs
     id="defs380" />
  <rect
     style="font-size:12;fill:#ffffff;fill-rule:evenodd;stroke-width:1pt;fill-opacity:1;"
     id="rect649"
     width="959.783389"
     height="208.932434"
     x="-0.000000"
     y="136.960342" />
  <rect
     width="618.063362"
     height="107.958336"
     x="-619.343940"
     y="-472.524338"
     style="font-size:12;fill:#087bce;fill-rule:evenodd;stroke-width:1pt;fill-opacity:1;"
     id="rect148"
     transform="matrix(-1.546849,0.000000,0.000000,-1.546849,4.190893e-4,-233.7145)" />
  <rect
     width="620.857059"
     height="104.977776"
     x="-620.856326"
     y="-257.751450"
     style="font-size:12;fill:#087bce;fill-rule:evenodd;stroke-width:1pt;fill-opacity:1;"
     id="rect585"
     transform="matrix(-1.546849,0.000000,0.000000,-1.546849,4.190893e-4,-233.7145)" />
  <polygon
     points="591.041,433.161 533.774,391.476 476.501,433.151 498.449,365.806 441.115,324.214 511.946,324.278 533.785,256.897 555.613,324.281 626.445,324.23 569.104,365.812 591.041,433.161 "
     style="font-size:12;fill:#087bce;fill-rule:evenodd;stroke-width:1pt;fill-opacity:1;"
     id="polygon671"
     transform="matrix(0.333374,-1.622405e-3,-3.629845e-3,0.316060,304.5722,139.6546)" />
  <polygon
     points="591.041,433.161 533.774,391.476 476.501,433.151 498.449,365.806 441.115,324.214 511.946,324.278 533.785,256.897 555.613,324.281 626.445,324.23 569.104,365.812 591.041,433.161 "
     style="font-size:12;fill:#087bce;fill-rule:evenodd;stroke-width:1pt;fill-opacity:1;"
     id="polygon637"
     transform="matrix(0.333374,-1.622405e-3,-3.629845e-3,0.316060,442.6630,175.2028)" />
  <polygon
     points="591.041,433.161 533.774,391.476 476.501,433.151 498.449,365.806 441.115,324.214 511.946,324.278 533.785,256.897 555.613,324.281 626.445,324.23 569.104,365.812 591.041,433.161 "
     style="font-size:12;fill:#087bce;fill-rule:evenodd;stroke-width:1pt;fill-opacity:1;"
     id="polygon638"
     transform="matrix(0.333374,-1.622405e-3,-3.629845e-3,0.316060,442.6630,101.3721)" />
  <polygon
     points="591.041,433.161 533.774,391.476 476.501,433.151 498.449,365.806 441.115,324.214 511.946,324.278 533.785,256.897 555.613,324.281 626.445,324.23 569.104,365.812 591.041,433.161 "
     style="font-size:12;fill:#087bce;fill-rule:evenodd;stroke-width:1pt;fill-opacity:1;"
     id="polygon639"
     transform="matrix(0.333374,-1.622405e-3,-3.629845e-3,0.316060,137.7696,175.2028)" />
  <polygon
     points="591.041,433.161 533.774,391.476 476.501,433.151 498.449,365.806 441.115,324.214 511.946,324.278 533.785,256.897 555.613,324.281 626.445,324.23 569.104,365.812 591.041,433.161 "
     style="font-size:12;fill:#087bce;fill-rule:evenodd;stroke-width:1pt;fill-opacity:1;"
     id="polygon640"
     transform="matrix(0.333374,-1.622405e-3,-3.629845e-3,0.316060,137.7695,101.3721)" />
</svg>
