<?xml version="1.0" encoding="UTF-8" standalone="no"?>
<!-- Created with Sodipodi ("http://www.sodipodi.com/") -->

<svg
   xmlns:dc="http://purl.org/dc/elements/1.1/"
   xmlns:cc="http://creativecommons.org/ns#"
   xmlns:rdf="http://www.w3.org/1999/02/22-rdf-syntax-ns#"
   xmlns:svg="http://www.w3.org/2000/svg"
   xmlns="http://www.w3.org/2000/svg"
   xmlns:sodipodi="http://sodipodi.sourceforge.net/DTD/sodipodi-0.dtd"
   xmlns:inkscape="http://www.inkscape.org/namespaces/inkscape"
   version="1"
   x="0"
   y="0"
   width="168.6mm"
   height="140mm"
   id="svg378"
   sodipodi:version="0.33pre"
   sodipodi:docname="northkorea43.svg"
   inkscape:version="0.48.0 r9654">
  <metadata
     id="metadata429194">
    <rdf:RDF>
      <cc:Work
         rdf:about="">
        <dc:format>image/svg+xml</dc:format>
        <dc:type
           rdf:resource="http://purl.org/dc/dcmitype/StillImage" />
      </cc:Work>
    </rdf:RDF>
  </metadata>
  <sodipodi:namedview
     id="base" />
  <defs
     id="defs380" />
  <rect
     width="597.401576"
     height="496.062866"
     x="-597.401576"
     y="-496.062851"
     style="font-size:12;fill:#ffffff;fill-rule:evenodd;stroke:#000000;stroke-width:0.62722pt;"
     id="rect149"
     transform="scale(-1.000000,-1.000000)" />
  <rect
     width="597.401576"
     height="89.763748"
     x="-597.401576"
     y="406.299149"
     style="font-size:12;fill:#3e5698;fill-rule:evenodd;stroke-width:1pt;"
     id="rect148"
     transform="scale(-1.000000,1.000000)" />
  <rect
     width="597.401576"
     height="274.956421"
     x="-597.401576"
     y="-385.509598"
     style="font-size:12;fill:#c60000;fill-rule:evenodd;stroke-width:1pt;"
     id="rect605"
     transform="scale(-1.000000,-1.000000)" />
  <rect
     width="597.401576"
     height="89.763748"
     x="-597.401576"
     y="-0.000046"
     style="font-size:12;fill:#3e5698;fill-rule:evenodd;stroke-width:1pt;"
     id="rect606"
     transform="scale(-1.000000,1.000000)" />
  <path
     sodipodi:type="arc"
     style="font-size:12;fill:#ffffff;fill-rule:evenodd;stroke-width:1pt;"
     id="path607"
     d="M 495.862305 1147.964233 A 163.791611 163.791626 0 1 0 168.279068,1147.964233 A 163.792 163.792 0 1 0 495.862 1147.96 L 332.070679 1147.964233 z"
     sodipodi:cx="332.070679"
     sodipodi:cy="1147.964233"
     sodipodi:rx="163.791611"
     sodipodi:ry="163.791626"
     transform="matrix(0.700001,0.000000,0.000000,0.666667,-0.318339,-517.2780)" />
  <polygon
     points="591.041,433.161 533.774,391.476 476.501,433.151 498.449,365.806 441.115,324.214 511.946,324.278 533.785,256.897 555.613,324.281 626.445,324.23 569.104,365.812 591.041,433.161 "
     style="font-size:12;fill:#c40000;fill-rule:evenodd;stroke-width:1pt;"
     id="polygon136"
     transform="matrix(0.944331,-4.376860e-3,-1.028209e-2,0.852656,-268.5997,-45.44008)" />
</svg>
