<?xml version="1.0" encoding="UTF-8" standalone="no"?>
<!-- Created with Sodipodi ("http://www.sodipodi.com/") -->

<svg
   xmlns:dc="http://purl.org/dc/elements/1.1/"
   xmlns:cc="http://creativecommons.org/ns#"
   xmlns:rdf="http://www.w3.org/1999/02/22-rdf-syntax-ns#"
   xmlns:svg="http://www.w3.org/2000/svg"
   xmlns="http://www.w3.org/2000/svg"
   xmlns:sodipodi="http://sodipodi.sourceforge.net/DTD/sodipodi-0.dtd"
   xmlns:inkscape="http://www.inkscape.org/namespaces/inkscape"
   id="svg575"
   width="186.667mm"
   height="140mm"
   viewBox="0 0 40 30"
   sodipodi:version="0.33pre"
   sodipodi:docname="Swiss_Flag_4:3.svg"
   version="1.1"
   inkscape:version="0.48.0 r9654">
  <metadata
     id="metadata429030">
    <rdf:RDF>
      <cc:Work
         rdf:about="">
        <dc:format>image/svg+xml</dc:format>
        <dc:type
           rdf:resource="http://purl.org/dc/dcmitype/StillImage" />
      </cc:Work>
    </rdf:RDF>
  </metadata>
  <sodipodi:namedview
     id="base" />
  <defs
     id="defs579" />
  <path
     id="Background"
     d="M 0 0 C 0 0 0 30 0 30 C 0 30 40 30 40 30 C 40 30 40 0 40 0 C 40 0 0 0 0 0 Z "
     style="fill:#ff0000;fill-opacity:0;" />
  <path
     id="Square"
     d="M 5 0 C 5 0 5 30 5 30 C 5 30 35 30 35 30 C 35 30 35 0 35 0 C 35 0 5 0 5 0 Z "
     style="fill:#ff0000;fill-opacity:1;stroke:none;" />
  <path
     id="Cross"
     d="M 17 5 C 17 5 17 12 17 12 C 17 12 10 12 10 12 C 10 12 10 18 10 18 C 10 18 17 18 17 18 C 17 18 17 25 17 25 C 17 25 23 25 23 25 C 23 25 23 18 23 18 C 23 18 30 18 30 18 C 30 18 30 12 30 12 C 30 12 23 12 23 12 C 23 12 23 5 23 5 C 23 5 17 5 17 5 Z "
     style="fill:#ffffff;fill-opacity:1;stroke:none;" />
</svg>
