<?xml version="1.0" encoding="UTF-8" standalone="no"?>
<!-- Created with Sodipodi ("http://www.sodipodi.com/") -->

<svg
   xmlns:dc="http://purl.org/dc/elements/1.1/"
   xmlns:cc="http://creativecommons.org/ns#"
   xmlns:rdf="http://www.w3.org/1999/02/22-rdf-syntax-ns#"
   xmlns:svg="http://www.w3.org/2000/svg"
   xmlns="http://www.w3.org/2000/svg"
   xmlns:sodipodi="http://sodipodi.sourceforge.net/DTD/sodipodi-0.dtd"
   xmlns:inkscape="http://www.inkscape.org/namespaces/inkscape"
   version="1"
   x="0.00000000"
   y="0.00000000"
   width="661.418518"
   height="496.062988"
   id="svg548"
   inkscape:version="0.48.0 r9654"
   sodipodi:docname="tanzania4x3.svg">
  <metadata
     id="metadata429318">
    <rdf:RDF>
      <cc:Work
         rdf:about="">
        <dc:format>image/svg+xml</dc:format>
        <dc:type
           rdf:resource="http://purl.org/dc/dcmitype/StillImage" />
      </cc:Work>
    </rdf:RDF>
  </metadata>
  <sodipodi:namedview
     pagecolor="#ffffff"
     bordercolor="#666666"
     borderopacity="1"
     objecttolerance="10"
     gridtolerance="10"
     guidetolerance="10"
     inkscape:pageopacity="0"
     inkscape:pageshadow="2"
     inkscape:window-width="640"
     inkscape:window-height="480"
     id="namedview429316" />
  <defs
     id="defs550" />
  <g
     transform="matrix(3.674547,0.000000,0.000000,4.133858,0.000000,-1.525879e-5)"
     style="font-size:12;"
     id="g589">
    <rect
       width="180.000000"
       height="120.000000"
       x="0.00000000"
       y="0.00000000"
       style="fill:#0099ff;fill-rule:evenodd;stroke-width:1pt;"
       id="rect583" />
    <path
       d="M 0 7.10543e-15 L 180 7.10543e-15 L 0 120 L 0 7.10543e-15 z "
       style="fill:#009900;fill-rule:evenodd;stroke-width:1pt;"
       id="path584" />
    <path
       d="M 0 120 L 40 120 L 180 25 L 180 7.10543e-15 L 140 7.10543e-15 L 0 95 L 0 120 z "
       style="fill-rule:evenodd;stroke-width:1pt;"
       id="path586" />
    <path
       d="M 0 91.4561 L 137.184 7.10543e-15 L 150.705 7.10543e-15 L 0 100.47 L 0 91.4561 z "
       style="fill:#ffff00;fill-rule:evenodd;stroke-width:1pt;"
       id="path587" />
    <path
       d="M -0.704896 95.47 L 150 -4.99993 L 150 4.01395 L 12.8159 95.47 L -0.704896 95.47 z "
       transform="translate(30.00000,24.53000)"
       style="fill:#ffff00;fill-rule:evenodd;stroke-width:1pt;"
       id="path588" />
  </g>
</svg>
