<?xml version="1.0" encoding="UTF-8" standalone="no"?>
<!-- Created with Sodipodi ("http://www.sodipodi.com/") -->

<svg
   xmlns:dc="http://purl.org/dc/elements/1.1/"
   xmlns:cc="http://creativecommons.org/ns#"
   xmlns:rdf="http://www.w3.org/1999/02/22-rdf-syntax-ns#"
   xmlns:svg="http://www.w3.org/2000/svg"
   xmlns="http://www.w3.org/2000/svg"
   xmlns:sodipodi="http://sodipodi.sourceforge.net/DTD/sodipodi-0.dtd"
   xmlns:inkscape="http://www.inkscape.org/namespaces/inkscape"
   id="england"
   sodipodi:version="0.33pre"
   width="234mm"
   height="140mm"
   sodipodi:docname="uk_english_royal_navy_historic.svg"
   version="1.1"
   inkscape:version="0.48.0 r9654">
  <metadata
     id="metadata436325">
    <rdf:RDF>
      <cc:Work
         rdf:about="">
        <dc:format>image/svg+xml</dc:format>
        <dc:type
           rdf:resource="http://purl.org/dc/dcmitype/StillImage" />
      </cc:Work>
    </rdf:RDF>
  </metadata>
  <defs
     id="defs550" />
  <sodipodi:namedview
     id="base" />
  <g
     id="g557"
     transform="matrix(1.000004,0.000000,0.000000,1.000000,0.000000,-556.2992)">
    <rect
       style="font-size:12;fill:#FFFFFF;fill-rule:evenodd;stroke:#000000;stroke-width:0;"
       id="background"
       width="829.133850"
       height="496.062988"
       x="0.000000"
       y="556.299164" />
    <g
       id="g554"
       transform="translate(0.000000,-1.525879e-5)">
      <rect
         style="font-size:12;fill:#cc0000;fill-rule:evenodd;stroke-width:0pt;fill-opacity:1;"
         id="horizontal"
         width="829.133862"
         height="99.212601"
         x="0.000000"
         y="754.724457" />
      <rect
         style="font-size:12;fill:#cc0000;fill-rule:evenodd;stroke-width:0pt;fill-opacity:1;"
         id="vertical"
         width="99.212601"
         height="496.062988"
         x="364.960632"
         y="556.299194" />
    </g>
  </g>
  <g
     id="g578"
     transform="matrix(6.129163,0.000000,0.000000,6.606589,0.000000,-1.525879e-5)">
    <rect
       style="font-size:12;fill:#000066;stroke-width:1pt;"
       id="rect124"
       x="0"
       width="60"
       height="30"
       y="0" />
    <g
       id="g584"
       style="font-size:12;">
      <path
         style="font-size:12;fill:#ffffff;stroke-width:1pt;"
         d="M 0 0 L 0 3.3541 L 53.2918 30 L 60 30 L 60 26.6459 L 6.7082 0 L 0 0 z M 60 0 L 60 3.35405 L 6.7082 30 L 0 30 L 0 26.6458 L 53.2918 0 L 60 0 z "
         id="path146" />
      <path
         style="font-size:12;fill:#ffffff;stroke-width:1pt;"
         d="M 25 0 L 25 30 L 35 30 L 35 0 L 25 0 z M 0 10 L 0 20 L 60 20 L 60 10 L 0 10 z "
         id="path136" />
      <path
         style="font-size:12;fill:#cc0000;stroke-width:1pt;"
         d="M 0 12 L 0 18 L 60 18 L 60 12 L 0 12 z M 27 0 L 27 30 L 33 30 L 33 0 L 27 0 z "
         id="path141" />
      <path
         style="font-size:12;fill:#cc0000;stroke-width:1pt;"
         d="M 0 30 L 20 20 L 24.4721 20 L 4.47214 30 L 0 30 z M 0 0 L 20 10 L 15.5279 10 L 0 2.23607 L 0 0 z M 35.5279 10 L 55.5279 0 L 60 0 L 40 10 L 35.5279 10 z M 60 30 L 40 20 L 44.4721 20 L 60 27.7639 L 60 30 z "
         id="path150" />
    </g>
  </g>
</svg>
