<?xml version="1.0" encoding="UTF-8" standalone="no"?>
<!-- Created with Sodipodi ("http://www.sodipodi.com/") -->

<svg
   xmlns:dc="http://purl.org/dc/elements/1.1/"
   xmlns:cc="http://creativecommons.org/ns#"
   xmlns:rdf="http://www.w3.org/1999/02/22-rdf-syntax-ns#"
   xmlns:svg="http://www.w3.org/2000/svg"
   xmlns="http://www.w3.org/2000/svg"
   xmlns:sodipodi="http://sodipodi.sourceforge.net/DTD/sodipodi-0.dtd"
   xmlns:inkscape="http://www.inkscape.org/namespaces/inkscape"
   id="svg548"
   sodipodi:version="0.32"
   width="210mm"
   height="140mm"
   sodipodi:docname="usa_alabama.svg"
   version="1.1"
   inkscape:version="0.48.0 r9654">
  <metadata
     id="metadata433433">
    <rdf:RDF>
      <cc:Work
         rdf:about="">
        <dc:format>image/svg+xml</dc:format>
        <dc:type
           rdf:resource="http://purl.org/dc/dcmitype/StillImage" />
      </cc:Work>
    </rdf:RDF>
  </metadata>
  <defs
     id="defs550" />
  <sodipodi:namedview
     id="base" />
  <rect
     style="font-size:12;fill:#ffffff;fill-rule:evenodd;stroke-width:1pt;fill-opacity:1;"
     id="rect552"
     width="744.130079"
     height="496.093371"
     x="0.041633"
     y="0.052065" />
  <path
     style="fill:#993300;fill-rule:evenodd;stroke:#993300;stroke-opacity:1;stroke-width:1pt;stroke-linejoin:miter;stroke-linecap:butt;fill-opacity:1;"
     d="M 0.625002 442.313 L 298.751 249.812 L 0.625002 55.4364 C 0.625002 55.4364 1.25 1.06121 0.937503 0.748711 C 0.625002 0.436211 58.4377 0.748711 58.4377 0.748711 L 372.501 200.437 L 685.628 0.748711 L 744.378 0.748711 L 745.315 55.4364 C 745.315 55.4364 445.002 247.937 445.314 247.937 C 445.627 247.937 744.69 436.063 744.69 436.063 C 744.69 436.063 744.69 497 744.69 496.688 C 744.69 496.375 681.877 496.688 681.877 496.688 L 373.126 295.437 L 57.344 496.219 L 0.156251 496.219 L 0.781254 442.313 "
     id="path554"
     sodipodi:nodetypes="ccccccccccccccccc" />
</svg>
