<?xml version="1.0" encoding="UTF-8" standalone="no"?>
<!-- Created with Inkscape (http://www.inkscape.org/) -->

<svg
   xmlns:dc="http://purl.org/dc/elements/1.1/"
   xmlns:cc="http://creativecommons.org/ns#"
   xmlns:rdf="http://www.w3.org/1999/02/22-rdf-syntax-ns#"
   xmlns:svg="http://www.w3.org/2000/svg"
   xmlns="http://www.w3.org/2000/svg"
   xmlns:xlink="http://www.w3.org/1999/xlink"
   xmlns:sodipodi="http://sodipodi.sourceforge.net/DTD/sodipodi-0.dtd"
   xmlns:inkscape="http://www.inkscape.org/namespaces/inkscape"
   height="128"
   id="svg2811"
   inkscape:export-filename="mail-folder-sent"
   inkscape:export-xdpi="45"
   inkscape:export-ydpi="45"
   inkscape:output_extension="org.inkscape.output.svgz.inkscape"
   inkscape:version="0.91 r13725"
   sodipodi:docname="folder_dati.svg"
   sodipodi:version="0.32"
   version="1.0"
   width="128">
  <metadata
     id="metadata3">
    <rdf:RDF>
      <cc:Work
         rdf:about="">
        <dc:title />
        <dc:description />
        <dc:subject>
          <rdf:Bag>
            <rdf:li>unsorted</rdf:li>
          </rdf:Bag>
        </dc:subject>
        <dc:publisher>
          <cc:Agent
             rdf:about="http://www.openclipart.org/">
            <dc:title>Open Clip Art Library, Source: Oxygen Icons, Source: Oxygen Icons, Source: Oxygen Icons, Source: Oxygen Icons</dc:title>
          </cc:Agent>
        </dc:publisher>
        <dc:creator>
          <cc:Agent>
            <dc:title />
          </cc:Agent>
        </dc:creator>
        <dc:rights>
          <cc:Agent>
            <dc:title />
          </cc:Agent>
        </dc:rights>
        <dc:date />
        <dc:format>image/svg+xml</dc:format>
        <dc:type
           rdf:resource="http://purl.org/dc/dcmitype/StillImage" />
        <cc:license
           rdf:resource="http://creativecommons.org/licenses/by-sa/3.0/ or http://creativecommons.org/licenses/LGPL/2.1/" />
        <dc:language>en</dc:language>
      </cc:Work>
    </rdf:RDF>
  </metadata>
  <defs
     id="defs2813">
    <linearGradient
       gradientTransform="matrix(1.0033808,0,0,1,-8.2378002,8)"
       gradientUnits="userSpaceOnUse"
       id="linearGradient3067"
       x1="122.74438"
       x2="122.39215"
       y1="96.721588"
       y2="20.043535">
      <stop
         id="stop3069"
         offset="0"
         style="stop-color:#88c4ff;stop-opacity:1;" />
      <stop
         id="stop3077"
         offset="0.13053299"
         style="stop-color:#b3d9ff;stop-opacity:1;" />
      <stop
         id="stop3071"
         offset="0.72006166"
         style="stop-color:#71A8F5" />
      <stop
         id="stop3073"
         offset="1"
         style="stop-color:#508ed9;stop-opacity:1;" />
    </linearGradient>
    <linearGradient
       id="linearGradient2822">
      <stop
         id="stop2824"
         offset="0"
         style="stop-color:#ffffff;stop-opacity:1;" />
      <stop
         id="stop2826"
         offset="1"
         style="stop-color:#ffffff;stop-opacity:0;" />
    </linearGradient>
    <linearGradient
       gradientTransform="matrix(1.0033404,0,0,1,-8.2374684,8)"
       gradientUnits="userSpaceOnUse"
       id="XMLID_9_"
       x1="71.9995"
       x2="71.9995"
       y1="14.2578"
       y2="19.9583">
      <stop
         id="stop46"
         offset="0.25"
         style="stop-color:#71a8f5;stop-opacity:0;" />
      <stop
         id="stop48"
         offset="1"
         style="stop-color:#0057ae;stop-opacity:1" />
    </linearGradient>
    <linearGradient
       gradientTransform="matrix(1.0033876,0,0,1,1.7561237,8)"
       gradientUnits="userSpaceOnUse"
       id="XMLID_8_"
       x1="72.0005"
       x2="72.0005"
       y1="96"
       y2="20.0005">
      <stop
         id="stop35"
         offset="0"
         style="stop-color:#cfe7ff;stop-opacity:1;" />
      <stop
         id="stop37"
         offset="0.5917"
         style="stop-color:#71A8F5" />
      <stop
         id="stop39"
         offset="1"
         style="stop-color:#2C72C7" />
    </linearGradient>
    <filter
       height="1.768"
       id="filter2807"
       inkscape:collect="always"
       width="1.0512"
       x="-0.0256"
       y="-0.384">
      <feGaussianBlur
         id="feGaussianBlur2809"
         inkscape:collect="always"
         stdDeviation="1.28" />
    </filter>
    <linearGradient
       gradientTransform="translate(-7.999995,8)"
       gradientUnits="userSpaceOnUse"
       id="XMLID_6_"
       x1="72.0005"
       x2="72.0005"
       y1="96"
       y2="4.882812e-04">
      <stop
         id="stop7"
         offset="0"
         style="stop-color:#00479E" />
      <stop
         id="stop9"
         offset="0.0769"
         style="stop-color:#2C72C7" />
      <stop
         id="stop11"
         offset="0.58579999"
         style="stop-color:#6ea1df;stop-opacity:1;" />
      <stop
         id="stop13"
         offset="0.96450001"
         style="stop-color:#adcbee;stop-opacity:1;" />
    </linearGradient>
    <linearGradient
       gradientTransform="translate(10,0)"
       gradientUnits="userSpaceOnUse"
       id="linearGradient2828"
       inkscape:collect="always"
       x1="22.413761"
       x2="22.413761"
       xlink:href="#linearGradient2822"
       y1="28.5"
       y2="34.472866" />
    <linearGradient
       gradientTransform="matrix(1.0033876,0,0,1,-8.2438763,8)"
       gradientUnits="userSpaceOnUse"
       id="linearGradient2838"
       inkscape:collect="always"
       x1="72.0005"
       x2="72.0005"
       xlink:href="#XMLID_8_"
       y1="96"
       y2="20.0005" />
    <clipPath
       clipPathUnits="userSpaceOnUse"
       id="clipPath2844">
      <path
         d="M 133.86613,100.978 C 133.79288,102.369 132.59585,103.5 131.19913,103.5 L 16.812952,103.5 C 15.415236,103.5 14.2192,102.368 14.145947,100.979 C 14.145947,100.979 10.508666,30.967 10.508666,30.957 C 10.461513,30.301 10.673223,29.685 11.105684,29.22 C 11.539144,28.756 12.140172,28.501 12.799403,28.501 L 135.21268,28.501 C 135.8719,28.501 136.47293,28.756 136.90339,29.219 C 137.33384,29.682 137.54254,30.298 137.49137,30.966 L 133.86613,100.978 z"
         id="path2846"
         style="fill:#ff00bf" />
    </clipPath>
    <filter
       height="1.8302754"
       id="filter2848"
       inkscape:collect="always"
       width="1.0247144"
       x="-0.012357198"
       y="-0.41513768">
      <feGaussianBlur
         id="feGaussianBlur2850"
         inkscape:collect="always"
         stdDeviation="0.65388509" />
    </filter>
    <linearGradient
       gradientTransform="matrix(1.0033808,0,0,1,-8.2378,8)"
       gradientUnits="userSpaceOnUse"
       id="linearGradient3109"
       inkscape:collect="always"
       x1="122.74438"
       x2="122.74438"
       xlink:href="#linearGradient3067"
       y1="96.721588"
       y2="20" />
    <filter
       inkscape:collect="always"
       id="filter6093"
       x="-0.064257026"
       width="1.1285141"
       y="-0.19277108"
       height="1.3855422"
       color-interpolation-filters="sRGB">
      <feGaussianBlur
         inkscape:collect="always"
         stdDeviation="0.89250425"
         id="feGaussianBlur6095" />
    </filter>
    <linearGradient
       inkscape:collect="always"
       xlink:href="#linearGradient5495"
       id="linearGradient6110"
       gradientUnits="userSpaceOnUse"
       gradientTransform="matrix(1.1818182,0,0,1.1818182,-30.64896,-69.394391)"
       spreadMethod="reflect"
       x1="269.96979"
       y1="511.96591"
       x2="286.62845"
       y2="511.96591" />
    <linearGradient
       id="linearGradient5495"
       inkscape:collect="always">
      <stop
         id="stop5497"
         offset="0"
         style="stop-color:#c6c6c6;stop-opacity:1" />
      <stop
         style="stop-color:#e3e3e3;stop-opacity:1"
         offset="0.20484632"
         id="stop5501" />
      <stop
         id="stop5499"
         offset="1"
         style="stop-color:#a5a5a8;stop-opacity:1" />
    </linearGradient>
    <linearGradient
       inkscape:collect="always"
       xlink:href="#linearGradient5466"
       id="linearGradient6112"
       gradientUnits="userSpaceOnUse"
       x1="282.35706"
       y1="518.55707"
       x2="286.6308"
       y2="527.33539" />
    <linearGradient
       inkscape:collect="always"
       id="linearGradient5466">
      <stop
         style="stop-color:#e3e3e3;stop-opacity:1"
         offset="0"
         id="stop5468" />
      <stop
         style="stop-color:#a5a5a8;stop-opacity:1"
         offset="1"
         id="stop5470" />
    </linearGradient>
    <linearGradient
       inkscape:collect="always"
       xlink:href="#linearGradient6035"
       id="linearGradient6114"
       gradientUnits="userSpaceOnUse"
       gradientTransform="translate(0,0.25)"
       spreadMethod="reflect"
       x1="308.5"
       y1="522.61218"
       x2="327.78125"
       y2="520.32812" />
    <linearGradient
       id="linearGradient6035">
      <stop
         style="stop-color:#ffffff;stop-opacity:1;"
         offset="0"
         id="stop6037" />
      <stop
         style="stop-color:#ffffff;stop-opacity:0;"
         offset="1"
         id="stop6039" />
    </linearGradient>
    <linearGradient
       inkscape:collect="always"
       xlink:href="#linearGradient6035"
       id="linearGradient6116"
       gradientUnits="userSpaceOnUse"
       gradientTransform="translate(0,12)"
       spreadMethod="reflect"
       x1="308.5"
       y1="522.61218"
       x2="327.78125"
       y2="520.32812" />
    <linearGradient
       inkscape:collect="always"
       xlink:href="#linearGradient6035"
       id="linearGradient6118"
       gradientUnits="userSpaceOnUse"
       gradientTransform="translate(0,22)"
       spreadMethod="reflect"
       x1="308.5"
       y1="522.61218"
       x2="327.78125"
       y2="520.32812" />
  </defs>
  <sodipodi:namedview
     bordercolor="#666666"
     borderopacity="1.0"
     id="base"
     inkscape:current-layer="g2513"
     inkscape:cx="64"
     inkscape:cy="64.83252"
     inkscape:document-units="px"
     inkscape:pageopacity="0.0"
     inkscape:pageshadow="2"
     inkscape:showpageshadow="true"
     inkscape:window-height="732"
     inkscape:window-width="794"
     inkscape:window-x="1015"
     inkscape:window-y="165"
     inkscape:zoom="2"
     pagecolor="#ffffff"
     showborder="true"
     showgrid="false"
     inkscape:window-maximized="0">
    <inkscape:grid
       id="GridFromPre046Settings"
       type="xygrid"
       originx="0px"
       originy="0px"
       spacingx="4px"
       spacingy="4px"
       color="#3f3fff"
       empcolor="#3f3fff"
       opacity="0.15"
       empopacity="0.38"
       empspacing="2"
       visible="true"
       enabled="true"
       snapvisiblegridlinesonly="true" />
  </sodipodi:namedview>
  <g
     id="layer1"
     inkscape:groupmode="layer"
     inkscape:label="Livello 1">
    <path
       d="M 117.983,19 C 117.992,17.35 116.64999,16 114.99999,16 L 44.961007,16 L 38.375006,9.414 C 37.597005,8.636 36.061006,8 34.961,8 L 13.999998,8 C 11.799996,8 9.999999,9.8 9.999999,12 L 9.999999,19 C 9.999999,19 10.999999,104 7,104 L 121,104 C 116.99999,104 117.983,19 117.983,19 z"
       id="path15"
       style="fill:url(#XMLID_6_)" />
    <g
       id="g17"
       style="opacity:0.6;filter:url(#filter2807)"
       transform="matrix(1.0033404,0,0,1,-8.2374684,8)">
      <path
         d="M 132,96 C 132,98.2 128.4,100 124,100 L 20,100 C 15.6,100 12,98.2 12,96 C 12,93.8 15.6,92 20,92 L 124,92 C 128.4,92 132,93.8 132,96 z"
         id="path19" />
    </g>
    <path
       d="M 124.36598,101.004 C 124.27969,102.652 122.85389,104 121.19831,104 L 6.812906,104 C 5.157329,104 3.731522,102.652 3.644228,101.004 L 0.007982,30.992 C -0.112423,29.347 1.143808,28 2.799384,28 L 125.21183,28 C 126.86741,28 128.11762,29.346 127.9912,30.991 L 124.36598,101.004 z"
       id="path30"
       style="opacity:0.9;fill:url(#linearGradient3109);fill-opacity:1" />
    <path
       d="M 10.580094,28 C 10.551086,23.609 10.516087,20.392 10.500078,19 L 10.500078,12 C 10.500078,10.07 12.07033,8.5 14.000627,8.5 L 34.964921,8.5 C 35.937077,8.5 37.339294,9.081 38.026407,9.768 L 44.759457,16.5 L 115.01648,16.5 C 115.68059,16.5 116.30469,16.76 116.77576,17.233 C 117.24683,17.706 117.50487,18.333 117.50087,18.997 C 117.50087,18.997 117.57288,18.925 117.60989,18.888 C 117.48787,19.495 117.47487,21.062 117.44687,25.161 L 117.43687,28 L 117.92894,28 C 117.95994,22.468 117.99995,19 117.99995,19 C 118.00896,17.35 116.66674,16 115.01648,16 L 44.966498,16 L 38.379463,9.414 C 37.60134,8.636 36.065099,8 34.964921,8 L 14.000627,8 C 11.80028,8 10,9.8 10,12 L 10,19 C 10,19 10.041009,22.468 10.073018,28 L 10.580094,28 z"
       id="path32"
       style="fill:#5293ee;fill-opacity:1" />
    <path
       d="M 9.8848616,22 C 9.8938916,23.75 9.9029216,25.755 9.9109516,28 L 118.09511,28 C 118.10414,25.755 118.11317,23.75 118.1212,22 L 9.8848616,22 z"
       id="path50"
       style="fill:url(#XMLID_9_);opacity:0.5" />
    <path
       clip-path="url(#clipPath2844)"
       d="M 12.8125,28.5 C 12.153269,28.5 11.52721,28.754751 11.09375,29.21875 C 10.661289,29.68375 10.452847,30.312749 10.5,30.96875 C 10.5,30.968937 10.559992,32.232788 10.5625,32.28125 C 10.647737,31.886257 10.815287,31.518165 11.09375,31.21875 C 11.52721,30.754751 12.153269,30.5 12.8125,30.5 L 135.21875,30.5 C 135.87797,30.500001 136.47579,30.75575 136.90625,31.21875 C 137.18342,31.516877 137.35439,31.883216 137.4375,32.28125 L 137.5,30.96875 C 137.55117,30.30075 137.3367,29.68175 136.90625,29.21875 C 136.47579,28.75575 135.87797,28.500001 135.21875,28.5 L 12.8125,28.5 z"
       id="path2788"
       style="fill:url(#linearGradient2828);fill-opacity:1;filter:url(#filter2848)"
       transform="translate(-10,0)" />
    <path
       d="M 125.21268,28 L 2.799403,28 C 1.143815,28 -0.1124237,29.347 0.007982,30.992 L 3.645263,101.004 C 3.731547,102.652 5.157364,104 6.812952,104 L 121.19913,104 C 122.85472,104 124.28053,102.652 124.36682,101.004 L 127.99106,30.991 C 128.11849,29.346 126.86827,28 125.21268,28 z M 123.86613,100.978 C 123.79288,102.369 122.59585,103.5 121.19913,103.5 L 6.812952,103.5 C 5.415236,103.5 4.2192,102.368 4.145947,100.979 C 4.145947,100.979 0.508666,30.967 0.508666,30.957 C 0.461513,30.301 0.673223,29.685 1.105684,29.22 C 1.539144,28.756 2.140172,28.501 2.799403,28.501 L 125.21268,28.501 C 125.8719,28.501 126.47293,28.756 126.90339,29.219 C 127.33384,29.682 127.54254,30.298 127.49137,30.966 L 123.86613,100.978 z"
       id="path2836"
       style="fill:url(#linearGradient2838)" />
    <g
       id="g2513"
       inkscape:label="Layer 1"
       transform="translate(0,20.5)">
      <g
         id="g6097"
         transform="matrix(1.1350812,0,0,1.3137757,-285.96459,-654.41598)">
        <path
           sodipodi:type="arc"
           style="fill:#2e3436;fill-opacity:1;stroke:none;filter:url(#filter6093)"
           id="path6079"
           sodipodi:cx="286.6308"
           sodipodi:cy="521.77954"
           sodipodi:rx="16.667517"
           sodipodi:ry="5.5558391"
           d="m 303.29832,521.77954 a 16.667517,5.5558391 0 1 1 -33.33504,0 16.667517,5.5558391 0 1 1 33.33504,0 z"
           transform="matrix(1.1818182,0,0,1.1818182,-30.64896,-65.983596)" />
        <path
           inkscape:connector-curvature="0"
           sodipodi:nodetypes="cccssscccc"
           id="path5488"
           d="m 288.40625,517.5 0,30.09191 0.125,0 c -0.0806,0.24126 -0.125,0.47032 -0.125,0.71875 0,3.6263 8.80861,6.5625 19.6875,6.5625 10.87889,0 19.6875,-2.9362 19.6875,-6.5625 0,-0.24879 -0.0442,-0.47715 -0.125,-0.71875 l 0.125,0 0,-30.09191 -39.375,0 z"
           style="fill:url(#linearGradient6110);fill-opacity:1;stroke:none" />
        <path
           transform="matrix(1.1818182,0,0,1.1818182,-30.64896,-99.394391)"
           d="m 303.29832,521.77954 a 16.667517,5.5558391 0 1 1 -33.33504,0 16.667517,5.5558391 0 1 1 33.33504,0 z"
           sodipodi:ry="5.5558391"
           sodipodi:rx="16.667517"
           sodipodi:cy="521.77954"
           sodipodi:cx="286.6308"
           id="path5460"
           style="fill:url(#linearGradient6112);fill-opacity:1;stroke:none"
           sodipodi:type="arc" />
        <path
           inkscape:connector-curvature="0"
           id="path6026"
           d="m 288.375,539.09375 c 0.14735,3.58398 8.93182,6.46875 19.71875,6.46875 10.75628,0 19.4918,-2.86766 19.6875,-6.4375 -3.45152,2.93589 -10.95919,4.96875 -19.6875,4.96875 -8.74612,0 -16.27686,-2.05444 -19.71875,-5 z"
           style="fill:#565656;fill-opacity:1;stroke:none" />
        <path
           inkscape:connector-curvature="0"
           id="path6030"
           d="m 288.375,517.34375 c 0.14735,3.58398 8.93182,6.46875 19.71875,6.46875 10.75628,0 19.4918,-2.86766 19.6875,-6.4375 -0.21572,0.18349 -0.44078,0.35509 -0.6875,0.53125 -0.009,0.0117 -0.0216,0.0196 -0.0312,0.0312 -2.29214,2.77744 -9.90349,4.8125 -18.96875,4.8125 -9.12203,0 -16.78563,-2.07074 -19.03125,-4.875 -0.0249,-0.0179 -0.038,-0.0446 -0.0625,-0.0625 -0.21872,-0.15969 -0.43159,-0.30323 -0.625,-0.46875 z"
           style="fill:url(#linearGradient6114);fill-opacity:1;stroke:none" />
        <g
           id="g6071">
          <g
             transform="translate(0,-0.52315203)"
             id="g6067">
            <path
               inkscape:connector-curvature="0"
               style="fill:#565656;fill-opacity:1;stroke:none"
               d="m 288.375,529.09375 c 0.14735,3.58398 8.93182,6.46875 19.71875,6.46875 10.75628,0 19.4918,-2.86766 19.6875,-6.4375 -3.45152,2.93589 -10.95919,4.96875 -19.6875,4.96875 -8.74612,0 -16.27686,-2.05444 -19.71875,-5 z"
               id="path6022" />
            <path
               inkscape:connector-curvature="0"
               id="path6043"
               d="m 288.375,529.09375 c 0.14735,3.58398 8.93182,6.46875 19.71875,6.46875 10.75628,0 19.4918,-2.86766 19.6875,-6.4375 -0.0497,0.0422 -0.10543,0.0838 -0.15625,0.125 -1.24216,3.22677 -9.51064,5.71875 -19.53125,5.71875 -10.11275,0 -18.46774,-2.51121 -19.59375,-5.78125 -0.0401,-0.0317 -0.0863,-0.0607 -0.125,-0.0937 z"
               style="fill:url(#linearGradient6116);fill-opacity:1;stroke:none" />
          </g>
          <path
             inkscape:connector-curvature="0"
             id="path6054"
             d="m 288.375,539.09375 c 0.14735,3.58398 8.93182,6.46875 19.71875,6.46875 10.75628,0 19.4918,-2.86766 19.6875,-6.4375 -0.0497,0.0422 -0.10543,0.0838 -0.15625,0.125 -1.24216,3.22677 -9.51064,5.71875 -19.53125,5.71875 -10.11275,0 -18.46774,-2.51121 -19.59375,-5.78125 -0.0401,-0.0317 -0.0863,-0.0607 -0.125,-0.0937 z"
             style="fill:url(#linearGradient6118);fill-opacity:1;stroke:none" />
        </g>
        <path
           inkscape:connector-curvature="0"
           id="path6060"
           d="m 288.5,549.9375 c 1.12601,3.27004 9.481,5.78125 19.59375,5.78125 10.02061,0 18.28909,-2.49198 19.53125,-5.71875 -3.51634,2.86779 -10.92856,4.84375 -19.53125,4.84375 -8.64783,0 -16.10003,-2.01374 -19.59375,-4.90625 z"
           style="fill:#565656;fill-opacity:1;stroke:none" />
      </g>
    </g>
  </g>
</svg>
