<?xml version="1.0" encoding="UTF-8" standalone="no"?>
<!-- Created with Inkscape (http://www.inkscape.org/) -->

<svg
   xmlns:dc="http://purl.org/dc/elements/1.1/"
   xmlns:cc="http://creativecommons.org/ns#"
   xmlns:rdf="http://www.w3.org/1999/02/22-rdf-syntax-ns#"
   xmlns:svg="http://www.w3.org/2000/svg"
   xmlns="http://www.w3.org/2000/svg"
   xmlns:xlink="http://www.w3.org/1999/xlink"
   xmlns:sodipodi="http://sodipodi.sourceforge.net/DTD/sodipodi-0.dtd"
   xmlns:inkscape="http://www.inkscape.org/namespaces/inkscape"
   version="1.1"
   width="256"
   height="256"
   id="svg6443"
   style="display: inline;"
   inkscape:version="0.91 r13725"
   sodipodi:docname="folder-dropbox.svg">
  <metadata
     id="metadata5840">
    <rdf:RDF>
      <cc:Work
         rdf:about="">
        <dc:format>image/svg+xml</dc:format>
        <dc:type
           rdf:resource="http://purl.org/dc/dcmitype/StillImage" />
      </cc:Work>
    </rdf:RDF>
  </metadata>
  <sodipodi:namedview
     pagecolor="#ffffff"
     bordercolor="#666666"
     borderopacity="1"
     objecttolerance="10"
     gridtolerance="10"
     guidetolerance="10"
     inkscape:pageopacity="0"
     inkscape:pageshadow="2"
     inkscape:window-width="640"
     inkscape:window-height="480"
     id="namedview5838" />
  <title
     id="title8223">dropbox icon</title>
  <defs
     id="defs6445">
    <linearGradient
       x1="72.000504"
       y1="96"
       x2="72.000504"
       y2="0.00048828119"
       id="XMLID_6_-1"
       gradientUnits="userSpaceOnUse"
       gradientTransform="translate(-8, 8)">
      <stop
         id="stop7-7"
         style="stop-color: rgb(0, 71, 158); stop-opacity: 1;"
         offset="0" />
      <stop
         id="stop9-1"
         style="stop-color: rgb(44, 114, 199); stop-opacity: 1;"
         offset="0.0769" />
      <stop
         id="stop11-5"
         style="stop-color: rgb(110, 161, 223); stop-opacity: 1;"
         offset="0.58579999" />
      <stop
         id="stop13-0"
         style="stop-color: rgb(173, 203, 238); stop-opacity: 1;"
         offset="0.96450001" />
    </linearGradient>
    <filter
       x="-0.025599999"
       y="-0.384"
       width="1.0512"
       height="1.768"
       color-interpolation-filters="sRGB"
       id="filter2807-1">
      <feGaussianBlur
         id="feGaussianBlur2809-9"
         stdDeviation="1.28" />
    </filter>
    <linearGradient
       x1="122.74438"
       y1="96.721588"
       x2="122.39215"
       y2="20.043535"
       id="linearGradient3067-7"
       gradientUnits="userSpaceOnUse"
       gradientTransform="matrix(1.00338, 0, 0, 1, -8.2378, 8)">
      <stop
         id="stop3069-2"
         style="stop-color: rgb(136, 196, 255); stop-opacity: 1;"
         offset="0" />
      <stop
         id="stop3077-8"
         style="stop-color: rgb(179, 217, 255); stop-opacity: 1;"
         offset="0.13053299" />
      <stop
         id="stop3071-0"
         style="stop-color: rgb(113, 168, 245); stop-opacity: 1;"
         offset="0.72006166" />
      <stop
         id="stop3073-6"
         style="stop-color: rgb(80, 142, 217); stop-opacity: 1;"
         offset="1" />
    </linearGradient>
    <linearGradient
       x1="71.999496"
       y1="14.2578"
       x2="71.999496"
       y2="19.9583"
       id="XMLID_9_-4"
       gradientUnits="userSpaceOnUse"
       gradientTransform="matrix(1.00334, 0, 0, 1, -36.4592, 808.364)">
      <stop
         id="stop46-1"
         style="stop-color: rgb(113, 168, 245); stop-opacity: 0;"
         offset="0.25" />
      <stop
         id="stop48-3"
         style="stop-color: rgb(0, 87, 174); stop-opacity: 1;"
         offset="1" />
    </linearGradient>
    <linearGradient
       id="linearGradient2822-7">
      <stop
         id="stop2824-0"
         style="stop-color: rgb(255, 255, 255); stop-opacity: 1;"
         offset="0" />
      <stop
         id="stop2826-3"
         style="stop-color: rgb(255, 255, 255); stop-opacity: 0;"
         offset="1" />
    </linearGradient>
    <clipPath
       id="clipPath2844-0">
      <path
         d="m 133.86613,100.978 c -0.0733,1.391 -1.27028,2.522 -2.667,2.522 l -114.386178,0 c -1.397716,0 -2.593752,-1.132 -2.667005,-2.521 0,0 -3.637281,-70.012 -3.637281,-70.022 -0.04715,-0.656 0.164557,-1.272 0.597018,-1.737 0.43346,-0.464 1.034488,-0.719 1.693719,-0.719 l 122.413277,0 c 0.65922,0 1.26025,0.255 1.69071,0.718 0.43045,0.463 0.63915,1.079 0.58798,1.747 l -3.62524,70.012 z"
         id="path2846-5"
         style="fill: rgb(255, 0, 191);" />
    </clipPath>
    <filter
       x="-0.012357198"
       y="-0.41513768"
       width="1.0247144"
       height="1.8302754"
       color-interpolation-filters="sRGB"
       id="filter2848-7">
      <feGaussianBlur
         id="feGaussianBlur2850-3"
         stdDeviation="0.65388509" />
    </filter>
    <linearGradient
       x1="72.000504"
       y1="96"
       x2="72.000504"
       y2="20.0005"
       id="XMLID_8_-1"
       gradientUnits="userSpaceOnUse"
       gradientTransform="matrix(1.00339, 0, 0, 1, 1.75612, 8)">
      <stop
         id="stop35-0"
         style="stop-color: rgb(207, 231, 255); stop-opacity: 1;"
         offset="0" />
      <stop
         id="stop37-8"
         style="stop-color: rgb(113, 168, 245); stop-opacity: 1;"
         offset="0.59170002" />
      <stop
         id="stop39-1"
         style="stop-color: rgb(44, 114, 199); stop-opacity: 1;"
         offset="1" />
    </linearGradient>
    <linearGradient
       x1="72.000504"
       y1="96"
       x2="72.000504"
       y2="0.00048828119"
       id="linearGradient7061"
       xlink:href="#XMLID_6_-1"
       gradientUnits="userSpaceOnUse"
       gradientTransform="translate(-36.2217, 808.364)" />
    <linearGradient
       x1="122.74438"
       y1="96.721588"
       x2="122.74438"
       y2="20"
       id="linearGradient7063"
       xlink:href="#linearGradient3067-7"
       gradientUnits="userSpaceOnUse"
       gradientTransform="matrix(1.00338, 0, 0, 1, -36.4595, 808.364)" />
    <linearGradient
       x1="71.999496"
       y1="14.2578"
       x2="71.999496"
       y2="19.9583"
       id="linearGradient7065"
       xlink:href="#XMLID_9_-4"
       gradientUnits="userSpaceOnUse"
       gradientTransform="matrix(1.00334, 0, 0, 1, -36.4592, 808.364)" />
    <linearGradient
       x1="22.413761"
       y1="28.5"
       x2="22.413761"
       y2="34.472866"
       id="linearGradient7067"
       xlink:href="#linearGradient2822-7"
       gradientUnits="userSpaceOnUse"
       gradientTransform="translate(10)" />
    <linearGradient
       x1="72.000504"
       y1="96"
       x2="72.000504"
       y2="20.0005"
       id="linearGradient7069"
       xlink:href="#XMLID_8_-1"
       gradientUnits="userSpaceOnUse"
       gradientTransform="matrix(1.00339, 0, 0, 1, -36.4656, 808.364)" />
    <filter
       color-interpolation-filters="sRGB"
       id="filter7824-7">
      <feGaussianBlur
         id="feGaussianBlur7826-1"
         stdDeviation="0.5487438" />
    </filter>
    <linearGradient
       id="linearGradient7828-7">
      <stop
         id="stop7830-3"
         style="stop-color: rgb(116, 178, 239); stop-opacity: 1;"
         offset="0" />
      <stop
         id="stop7832-5"
         style="stop-color: rgb(208, 227, 244); stop-opacity: 1;"
         offset="1" />
    </linearGradient>
    <linearGradient
       id="linearGradient7794-1">
      <stop
         id="stop7796-2"
         style="stop-color: rgb(114, 175, 237); stop-opacity: 1;"
         offset="0" />
      <stop
         id="stop7804-1"
         style="stop-color: rgb(127, 182, 236); stop-opacity: 1;"
         offset="0.49293715" />
      <stop
         id="stop7802-2"
         style="stop-color: rgb(90, 159, 232); stop-opacity: 1;"
         offset="0.51550651" />
      <stop
         id="stop7798-1"
         style="stop-color: rgb(96, 162, 233); stop-opacity: 0.627907;"
         offset="1" />
    </linearGradient>
    <linearGradient
       id="linearGradient7774-6">
      <stop
         id="stop7776-9"
         style="stop-color: rgb(72, 145, 230); stop-opacity: 1;"
         offset="0" />
      <stop
         id="stop7782-1"
         style="stop-color: rgb(131, 179, 232); stop-opacity: 1;"
         offset="0.57134438" />
      <stop
         id="stop7784-8"
         style="stop-color: rgb(161, 202, 239); stop-opacity: 1;"
         offset="0.58421862" />
      <stop
         id="stop7778-9"
         style="stop-color: rgb(177, 206, 234); stop-opacity: 1;"
         offset="1" />
    </linearGradient>
    <linearGradient
       id="linearGradient7758-6">
      <stop
         id="stop7760-4"
         style="stop-color: rgb(116, 178, 239); stop-opacity: 1;"
         offset="0" />
      <stop
         id="stop7762-0"
         style="stop-color: rgb(187, 215, 239); stop-opacity: 1;"
         offset="1" />
    </linearGradient>
    <linearGradient
       id="linearGradient7786-7">
      <stop
         id="stop7788-3"
         style="stop-color: rgb(160, 203, 243); stop-opacity: 1;"
         offset="0" />
      <stop
         id="stop7790-1"
         style="stop-color: rgb(195, 219, 243); stop-opacity: 1;"
         offset="1" />
    </linearGradient>
    <linearGradient
       id="linearGradient7766-6">
      <stop
         id="stop7768-7"
         style="stop-color: rgb(114, 176, 238); stop-opacity: 1;"
         offset="0" />
      <stop
         id="stop7770-4"
         style="stop-color: rgb(182, 210, 235); stop-opacity: 1;"
         offset="1" />
    </linearGradient>
    <linearGradient
       id="linearGradient7750-5">
      <stop
         id="stop7752-6"
         style="stop-color: rgb(190, 218, 248); stop-opacity: 1;"
         offset="0" />
      <stop
         id="stop7754-2"
         style="stop-color: rgb(231, 240, 250); stop-opacity: 1;"
         offset="1" />
    </linearGradient>
    <filter
       color-interpolation-filters="sRGB"
       id="filter8048">
      <feGaussianBlur
         id="feGaussianBlur8050"
         stdDeviation="1.5956794" />
    </filter>
    <linearGradient
       x1="371.18546"
       y1="150.3082"
       x2="392.96378"
       y2="154.05972"
       id="linearGradient8087"
       xlink:href="#linearGradient7750-5"
       gradientUnits="userSpaceOnUse"
       gradientTransform="translate(-537.085, 46.4756)" />
    <linearGradient
       x1="372.61942"
       y1="215.25261"
       x2="412.91202"
       y2="191.60184"
       id="linearGradient8089"
       xlink:href="#linearGradient7766-6"
       gradientUnits="userSpaceOnUse"
       gradientTransform="translate(-537.085, 46.4756)" />
    <linearGradient
       x1="316.45526"
       y1="187.0891"
       x2="368.25366"
       y2="215.28809"
       id="linearGradient8091"
       xlink:href="#linearGradient7786-7"
       gradientUnits="userSpaceOnUse"
       gradientTransform="translate(-537.085, 46.4756)" />
    <linearGradient
       x1="369.80405"
       y1="124.2705"
       x2="450.25125"
       y2="131.45308"
       id="linearGradient8093"
       xlink:href="#linearGradient7758-6"
       gradientUnits="userSpaceOnUse"
       gradientTransform="translate(-537.085, 46.4756)" />
    <linearGradient
       x1="369.99231"
       y1="185.51376"
       x2="452.39532"
       y2="183.95979"
       id="linearGradient8095"
       xlink:href="#linearGradient7774-6"
       gradientUnits="userSpaceOnUse"
       gradientTransform="translate(-537.085, 46.4756)" />
    <linearGradient
       x1="278.61978"
       y1="183.884"
       x2="354.76187"
       y2="183.884"
       id="linearGradient8097"
       xlink:href="#linearGradient7794-1"
       gradientUnits="userSpaceOnUse"
       gradientTransform="translate(-537.085, 46.4756)" />
    <linearGradient
       x1="292.66333"
       y1="128.49161"
       x2="361.99966"
       y2="123.66749"
       id="linearGradient8099"
       xlink:href="#linearGradient7828-7"
       gradientUnits="userSpaceOnUse"
       gradientTransform="translate(-537.085, 46.4756)" />
  </defs>
  <g
     id="layer2"
     style="display: inline;" />
  <g
     id="layer10">
    <g
       id="g8178">
      <g
         transform="matrix(1.96875, 0, 0, 1.97508, 57.1084, -1579.14)"
         id="g6743"
         style="display: inline;">
        <path
           d="m 89.761315,819.36353 c 0.009,-1.65 -1.33301,-3 -2.98301,-3 l -70.038986,0 -6.586001,-6.586 c -0.7780014,-0.778 -2.3140004,-1.414 -3.4140064,-1.414 l -20.9610016,0 c -2.200002,0 -3.999999,1.8 -3.999999,4 l 0,7 c 0,0 1,85 -2.999999,85 l 114.000003,0 c -4.00001,0 -3.017,-85 -3.017,-85 z"
           id="path15"
           style="fill: url(#linearGradient7061) rgb(0, 0, 0);" />
        <g
           transform="matrix(1.00334, 0, 0, 1, -36.4592, 808.364)"
           id="g17"
           style="opacity: 0.6; filter: url(#filter2807-1);">
          <path
             d="m 132,96 c 0,2.2 -3.6,4 -8,4 l -104,0 c -4.4,0 -8,-1.8 -8,-4 0,-2.2 3.6,-4 8,-4 l 104,0 c 4.4,0 8,1.8 8,4 z"
             id="path19" />
        </g>
        <path
           d="m 96.144295,901.36753 c -0.0863,1.648 -1.51209,2.996 -3.16767,2.996 l -114.385407,0 c -1.655577,0 -3.081384,-1.348 -3.168678,-2.996 l -3.636246,-70.012 c -0.120405,-1.645 1.135826,-2.992 2.791402,-2.992 l 122.412449,0 c 1.65558,0 2.90579,1.346 2.77937,2.991 l -3.62522,70.013 z"
           id="path30"
           style="opacity: 0.9; fill: url(#linearGradient7063) rgb(0, 0, 0); fill-opacity: 1;" />
        <path
           d="m -17.641594,828.36353 c -0.02901,-4.391 -0.06401,-7.608 -0.08002,-9 l 0,-7 c 0,-1.93 1.570252,-3.5 3.500549,-3.5 l 20.9642936,0 c 0.972156,0 2.374373,0.581 3.061486,1.268 l 6.7330504,6.732 70.25703,0 c 0.66411,0 1.28821,0.26 1.75928,0.733 0.47107,0.473 0.72911,1.1 0.72511,1.764 0,0 0.072,-0.072 0.10902,-0.109 -0.12202,0.607 -0.13502,2.174 -0.16302,6.273 l -0.01,2.839 0.49207,0 c 0.031,-5.532 0.071,-9 0.071,-9 0.009,-1.65 -1.33321,-3 -2.98347,-3 l -70.049975,0 -6.587035,-6.586 c -0.7781234,-0.778 -2.3143644,-1.414 -3.4145424,-1.414 l -20.9642936,0 c -2.200347,0 -4.000627,1.8 -4.000627,4 l 0,7 c 0,0 0.04101,3.468 0.07302,9 l 0.507076,0 z"
           id="path32"
           style="fill: rgb(82, 147, 238); fill-opacity: 1;" />
        <path
           d="m -18.336826,822.36353 c 0.009,1.75 0.01806,3.755 0.02609,6 l 108.184161,0 c 0.009,-2.245 0.0181,-4.25 0.0261,-6 l -108.236351,0 z"
           id="path50"
           style="opacity: 0.5; fill: url(#linearGradient7065) rgb(0, 0, 0);" />
        <path
           d="m 12.8125,28.5 c -0.659231,0 -1.28529,0.254751 -1.71875,0.71875 -0.432461,0.465 -0.640903,1.093999 -0.59375,1.75 0,1.87e-4 0.05999,1.264038 0.0625,1.3125 0.08524,-0.394993 0.252787,-0.763085 0.53125,-1.0625 C 11.52721,30.754751 12.153269,30.5 12.8125,30.5 l 122.40625,0 c 0.65922,1e-6 1.25704,0.25575 1.6875,0.71875 0.27717,0.298127 0.44814,0.664466 0.53125,1.0625 l 0.0625,-1.3125 c 0.0512,-0.668 -0.1633,-1.287 -0.59375,-1.75 -0.43046,-0.463 -1.02828,-0.718749 -1.6875,-0.71875 l -122.40625,0 z"
           transform="translate(-38.2217, 800.364)"
           clip-path="url(#clipPath2844-0)"
           id="path2788"
           style="fill: url(#linearGradient7067) rgb(0, 0, 0); fill-opacity: 1; filter: url(#filter2848-7);" />
        <path
           d="m 96.990995,828.36353 -122.41328,0 c -1.655588,0 -2.911827,1.347 -2.791421,2.992 l 3.637281,70.012 c 0.08628,1.648 1.512101,2.996 3.167689,2.996 l 114.386181,0 c 1.65559,0 3.0814,-1.348 3.16769,-2.996 l 3.62424,-70.013 c 0.12743,-1.645 -1.12279,-2.991 -2.77838,-2.991 z m -1.34655,72.978 c -0.0733,1.391 -1.27028,2.522 -2.667,2.522 l -114.386181,0 c -1.397716,0 -2.593752,-1.132 -2.667005,-2.521 0,0 -3.637281,-70.012 -3.637281,-70.022 -0.04715,-0.656 0.164557,-1.272 0.597018,-1.737 0.43346,-0.464 1.034488,-0.719 1.693719,-0.719 l 122.41328,0 c 0.65922,0 1.26025,0.255 1.69071,0.718 0.43045,0.463 0.63915,1.079 0.58798,1.747 l -3.62524,70.012 z"
           id="path2836"
           style="fill: url(#linearGradient7069) rgb(0, 0, 0);" />
      </g>
      <g
         id="g8134">
        <g
           transform="translate(298.02, -41.5913)"
           id="g8022"
           style="opacity: 0.57; fill: rgb(0, 0, 0); fill-opacity: 1; stroke: rgb(0, 0, 0); stroke-width: 6; stroke-linecap: round; stroke-linejoin: round; stroke-opacity: 1; filter: url(#filter8048);">
          <path
             d="m -168.82582,293.48955 -51.8222,-31.76989 51.26779,-38.35962 50.51085,37.20584 -49.95644,32.92367 z"
             id="path8024"
             style="fill: rgb(0, 0, 0); fill-opacity: 1; stroke: rgb(0, 0, 0); stroke-width: 6; stroke-linecap: round; stroke-linejoin: round; stroke-opacity: 1; display: inline;" />
          <path
             d="m -169.40704,170.93792 0.0268,52.42211 -51.24288,38.37857 1.04825,-60.84134 50.16783,-29.95934 z"
             id="path8026"
             style="fill: rgb(0, 0, 0); fill-opacity: 1; stroke: rgb(0, 0, 0); stroke-width: 6; stroke-linecap: round; stroke-linejoin: round; stroke-opacity: 1; display: inline;" />
          <path
             d="m -120.067,201.70509 1.21063,58.92953 -50.53057,-37.26119 -0.0466,-52.44891 49.36654,30.78057 z"
             id="path8028"
             style="fill: rgb(0, 0, 0); fill-opacity: 1; stroke: rgb(0, 0, 0); stroke-width: 6; stroke-linecap: round; stroke-linejoin: round; stroke-opacity: 1; display: inline;" />
          <path
             d="m -120.054,201.74299 1.18685,58.89646 -49.97651,32.87499 -0.32217,-61.5782 49.11183,-30.19325 z"
             id="path8030"
             style="fill: rgb(0, 0, 0); fill-opacity: 1; stroke: rgb(0, 0, 0); stroke-width: 6; stroke-linecap: round; stroke-linejoin: round; stroke-opacity: 1; display: inline;" />
          <path
             d="m -168.83177,293.57129 -51.79841,-31.86576 1.07909,-60.85806 50.39826,31.03898 0.32106,61.68484 z"
             id="path8032"
             style="opacity: 0.764444; fill: rgb(0, 0, 0); fill-opacity: 1; stroke: rgb(0, 0, 0); stroke-width: 6; stroke-linecap: round; stroke-linejoin: round; stroke-opacity: 1; display: inline;" />
          <path
             d="m -169.42544,170.93793 36.27971,-26.69347 48.884421,33.44723 -35.830911,24.0586 -49.33322,-30.81236 z"
             id="path8034"
             style="fill: rgb(0, 0, 0); fill-opacity: 1; stroke: rgb(0, 0, 0); stroke-width: 6; stroke-linecap: round; stroke-linejoin: round; stroke-opacity: 1; display: inline;" />
          <path
             d="m -169.17772,231.89834 49.09731,-30.19325 35.390291,28.51591 -50.170861,29.15914 -34.31674,-27.4818 z"
             id="path8036"
             style="fill: rgb(0, 0, 0); fill-opacity: 1; stroke: rgb(0, 0, 0); stroke-width: 6; stroke-linecap: round; stroke-linejoin: round; stroke-opacity: 1; display: inline;" />
          <path
             d="m -219.46228,200.97306 50.32469,30.97619 -33.47548,27.64531 -51.02847,-30.01677 34.17926,-28.60473 z"
             id="path8038"
             style="fill: rgb(0, 0, 0); fill-opacity: 1; stroke: rgb(0, 0, 0); stroke-width: 6; stroke-linecap: round; stroke-linejoin: round; stroke-opacity: 1; display: inline;" />
          <path
             d="m -169.18961,170.90652 -50.14708,30.06655 -33.44723,-24.99662 47.16918,-32.1608 36.42513,27.09087 z"
             id="path8040"
             style="fill: rgb(0, 0, 0); fill-opacity: 1; stroke: rgb(0, 0, 0); stroke-width: 6; stroke-linecap: round; stroke-linejoin: round; stroke-opacity: 1; display: inline;" />
          <path
             d="m -175.6784,227.99655 6.40537,3.9397 -33.36684,27.4975 -8.36181,-4.87773 35.32328,-26.55947 z"
             id="path8042"
             style="opacity: 0.109; fill: rgb(0, 0, 0); fill-opacity: 1; stroke: rgb(0, 0, 0); stroke-width: 6; stroke-linecap: round; stroke-linejoin: round; stroke-opacity: 1; display: inline; filter: url(#filter7824-7);" />
        </g>
        <g
           transform="translate(298.02, -45.8794)"
           id="g8000"
           style="fill: rgb(96, 162, 233); fill-opacity: 0.627907; stroke: rgb(41, 93, 156); stroke-width: 6; stroke-linecap: round; stroke-linejoin: round; stroke-opacity: 1;">
          <path
             d="m -168.82582,293.48955 -51.8222,-31.76989 51.26779,-38.35962 50.51085,37.20584 -49.95644,32.92367 z"
             id="path8002"
             style="fill: rgb(96, 162, 233); fill-opacity: 0.627907; stroke: rgb(41, 93, 156); stroke-width: 6; stroke-linecap: round; stroke-linejoin: round; stroke-opacity: 1; display: inline;" />
          <path
             d="m -169.40704,170.93792 0.0268,52.42211 -51.24288,38.37857 1.04825,-60.84134 50.16783,-29.95934 z"
             id="path8004"
             style="fill: rgb(96, 162, 233); fill-opacity: 0.627907; stroke: rgb(41, 93, 156); stroke-width: 6; stroke-linecap: round; stroke-linejoin: round; stroke-opacity: 1; display: inline;" />
          <path
             d="m -120.067,201.70509 1.21063,58.92953 -50.53057,-37.26119 -0.0466,-52.44891 49.36654,30.78057 z"
             id="path8006"
             style="fill: rgb(96, 162, 233); fill-opacity: 0.627907; stroke: rgb(41, 93, 156); stroke-width: 6; stroke-linecap: round; stroke-linejoin: round; stroke-opacity: 1; display: inline;" />
          <path
             d="m -120.054,201.74299 1.18685,58.89646 -49.97651,32.87499 -0.32217,-61.5782 49.11183,-30.19325 z"
             id="path8008"
             style="fill: rgb(96, 162, 233); fill-opacity: 0.627907; stroke: rgb(41, 93, 156); stroke-width: 6; stroke-linecap: round; stroke-linejoin: round; stroke-opacity: 1; display: inline;" />
          <path
             d="m -168.83177,293.57129 -51.79841,-31.86576 1.07909,-60.85806 50.39826,31.03898 0.32106,61.68484 z"
             id="path8010"
             style="opacity: 0.764444; fill: rgb(96, 162, 233); fill-opacity: 0.627907; stroke: rgb(41, 93, 156); stroke-width: 6; stroke-linecap: round; stroke-linejoin: round; stroke-opacity: 1; display: inline;" />
          <path
             d="m -169.42544,170.93793 36.27971,-26.69347 48.884421,33.44723 -35.830911,24.0586 -49.33322,-30.81236 z"
             id="path8012"
             style="fill: rgb(96, 162, 233); fill-opacity: 0.627907; stroke: rgb(41, 93, 156); stroke-width: 6; stroke-linecap: round; stroke-linejoin: round; stroke-opacity: 1; display: inline;" />
          <path
             d="m -169.17772,231.89834 49.09731,-30.19325 35.390291,28.51591 -50.170861,29.15914 -34.31674,-27.4818 z"
             id="path8014"
             style="fill: rgb(96, 162, 233); fill-opacity: 0.627907; stroke: rgb(41, 93, 156); stroke-width: 6; stroke-linecap: round; stroke-linejoin: round; stroke-opacity: 1; display: inline;" />
          <path
             d="m -219.46228,200.97306 50.32469,30.97619 -33.47548,27.64531 -51.02847,-30.01677 34.17926,-28.60473 z"
             id="path8016"
             style="fill: rgb(96, 162, 233); fill-opacity: 0.627907; stroke: rgb(41, 93, 156); stroke-width: 6; stroke-linecap: round; stroke-linejoin: round; stroke-opacity: 1; display: inline;" />
          <path
             d="m -169.18961,170.90652 -50.14708,30.06655 -33.44723,-24.99662 47.16918,-32.1608 36.42513,27.09087 z"
             id="path8018"
             style="fill: rgb(96, 162, 233); fill-opacity: 0.627907; stroke: rgb(41, 93, 156); stroke-width: 6; stroke-linecap: round; stroke-linejoin: round; stroke-opacity: 1; display: inline;" />
          <path
             d="m -175.6784,227.99655 6.40537,3.9397 -33.36684,27.4975 -8.36181,-4.87773 35.32328,-26.55947 z"
             id="path8020"
             style="opacity: 0.109; fill: rgb(96, 162, 233); fill-opacity: 0.627907; stroke: rgb(41, 93, 156); stroke-width: 6; stroke-linecap: round; stroke-linejoin: round; stroke-opacity: 1; display: inline; filter: url(#filter7824-7);" />
        </g>
        <g
           transform="translate(298.02, -45.8794)"
           id="g7988">
          <path
             d="m -168.82582,293.48955 -51.8222,-31.76989 51.26779,-38.35962 50.51085,37.20584 -49.95644,32.92367 z"
             id="path7701-2"
             style="fill: rgb(253, 253, 254); fill-opacity: 1; stroke: none; display: inline;" />
          <path
             d="m -169.40704,170.93792 0.0268,52.42211 -51.24288,38.37857 1.04825,-60.84134 50.16783,-29.95934 z"
             id="path7703-9"
             style="fill: rgb(226, 240, 249); fill-opacity: 1; stroke: none; display: inline;" />
          <path
             d="m -120.067,201.70509 1.21063,58.92953 -50.53057,-37.26119 -0.0466,-52.44891 49.36654,30.78057 z"
             id="path7705-9"
             style="fill: url(#linearGradient8087) rgb(0, 0, 0); fill-opacity: 1; stroke: none; display: inline;" />
          <path
             d="m -120.054,201.74299 1.18685,58.89646 -49.97651,32.87499 -0.32217,-61.5782 49.11183,-30.19325 z"
             id="path7707-7"
             style="fill: url(#linearGradient8089) rgb(0, 0, 0); fill-opacity: 1; stroke: none; display: inline;" />
          <path
             d="m -168.83177,293.57129 -51.79841,-31.86576 1.07909,-60.85806 50.39826,31.03898 0.32106,61.68484 z"
             id="path7709-2"
             style="opacity: 0.764444; fill: url(#linearGradient8091) rgb(0, 0, 0); fill-opacity: 1; stroke: none; display: inline;" />
          <path
             d="m -169.42544,170.93793 36.27971,-26.69347 48.884421,33.44723 -35.830911,24.0586 -49.33322,-30.81236 z"
             id="path7711-3"
             style="fill: url(#linearGradient8093) rgb(0, 0, 0); fill-opacity: 1; stroke: none; display: inline;" />
          <path
             d="m -169.17772,231.89834 49.09731,-30.19325 35.390291,28.51591 -50.170861,29.15914 -34.31674,-27.4818 z"
             id="path7713-8"
             style="fill: url(#linearGradient8095) rgb(0, 0, 0); fill-opacity: 1; stroke: none; display: inline;" />
          <path
             d="m -219.46228,200.97306 50.32469,30.97619 -33.47548,27.64531 -51.02847,-30.01677 34.17926,-28.60473 z"
             id="path7715-4"
             style="fill: url(#linearGradient8097) rgb(0, 0, 0); fill-opacity: 1; stroke: none; display: inline;" />
          <path
             d="m -169.18961,170.90652 -50.14708,30.06655 -33.44723,-24.99662 47.16918,-32.1608 36.42513,27.09087 z"
             id="path7717-4"
             style="fill: url(#linearGradient8099) rgb(0, 0, 0); fill-opacity: 1; stroke: none; display: inline;" />
          <path
             d="m -175.6784,227.99655 6.40537,3.9397 -33.36684,27.4975 -8.36181,-4.87773 35.32328,-26.55947 z"
             id="path7806-2"
             style="opacity: 0.109; fill: rgb(255, 255, 255); stroke: none; display: inline; filter: url(#filter7824-7);" />
        </g>
      </g>
    </g>
  </g>
</svg>
